<svg xmlns="http://www.w3.org/2000/svg" viewBox="0 0 500 500"><g id="freepik--background-complete--inject-22"><path d="M309.71,474.86c-.79,3.43-13.14,6.57-63.71,6.45-35.16-.09-63.71-2.89-63.71-6.45s28.52-6.44,63.71-6.44C275.62,468.42,310.2,472.71,309.71,474.86Z" style="fill:#ebebeb"></path><path d="M443.21,222.7c.6-4.34-5.53-7.91-10.13-8.28-2.2-.18-4.48.16-6.56-.57-4.51-1.57-6.31-7.39-10.7-9.25-3.29-1.38-7.08-.15-10.27,1.45s-6.33,3.63-9.89,3.86c-3.1.19-6.47-1-9.18.56-2,1.13-3.07,3.45-4.94,4.83s-4.19,1.62-6.45,1.75-4.6.14-6.66,1.08-3.76,3.12-3.33,5.34Z" style="fill:#ebebeb"></path><path d="M80.24,227.31c.47-3.41-4.35-6.22-8-6.51-1.72-.14-3.52.13-5.15-.44-3.55-1.24-5-5.82-8.42-7.27-2.58-1.1-5.56-.12-8.06,1.14s-5,2.84-7.79,3c-2.43.16-5.08-.74-7.21.45-1.58.88-2.42,2.71-3.88,3.79a9.25,9.25,0,0,1-5.07,1.38,14.2,14.2,0,0,0-5.24.85c-1.61.74-2.95,2.45-2.62,4.2Z" style="fill:#ebebeb"></path><path d="M97.86,166.63S73.71,268.42,82,435.22h24S88.83,247.49,104.83,167.4Z" style="fill:#f5f5f5"></path><path d="M97,333a15.39,15.39,0,0,1-5.7.56,15.57,15.57,0,0,1-5.62-1.1c0-.15,2.52.45,5.64.59S97,332.81,97,333Z" style="fill:#ebebeb"></path><path d="M94.67,312.08a15.24,15.24,0,0,1-4.8.53,15.24,15.24,0,0,1-4.8-.53,46,46,0,0,1,4.8,0A46,46,0,0,1,94.67,312.08Z" style="fill:#ebebeb"></path><path d="M96.48,287.44a11.47,11.47,0,0,1-4.38.71,11.23,11.23,0,0,1-4.4-.53c0-.15,2,.08,4.39,0S96.44,287.29,96.48,287.44Z" style="fill:#ebebeb"></path><path d="M94.31,265a10.72,10.72,0,0,1-4.12.26,10.41,10.41,0,0,1-4-.87c0-.14,1.83.2,4.07.36A40.45,40.45,0,0,1,94.31,265Z" style="fill:#ebebeb"></path><path d="M95.57,241.29a5.3,5.3,0,0,1-2.79.1,5.28,5.28,0,0,1-2.64-.87,14.06,14.06,0,0,1,2.72.36A15,15,0,0,1,95.57,241.29Z" style="fill:#ebebeb"></path><path d="M96.75,215a5.86,5.86,0,0,1-2.7.24,5.69,5.69,0,0,1-2.65-.54,9.91,9.91,0,0,1,2.68,0A9.85,9.85,0,0,1,96.75,215Z" style="fill:#ebebeb"></path><path d="M101.3,188.69a5.61,5.61,0,0,1-2.55-.17,5.24,5.24,0,0,1-2.36-.9,7.77,7.77,0,0,1,2.48.4A7.59,7.59,0,0,1,101.3,188.69Z" style="fill:#ebebeb"></path><path d="M94.46,356.09a17.35,17.35,0,0,1-4.19.26,17.4,17.4,0,0,1-4.2-.26,17.73,17.73,0,0,1,4.2-.25A17.68,17.68,0,0,1,94.46,356.09Z" style="fill:#ebebeb"></path><ellipse cx="96.31" cy="375.25" rx="4.19" ry="0.26" style="fill:#ebebeb"></ellipse><path d="M164.08,85.65c-.28.08-.6.18-1,.31-7,2.52-27.51,14.51-27.51,14.51L133,97.65l-.55,9.38-11.14,14.44-3.77-11c-1.59,2-1,18.11-1,18.11l-3.89,13.61-6.64-14.45c-3.3,8.26,3.2,24.8,3.2,24.8l-6.87,15.74c-5-8.55-11.12-36.11,5.94-60.32S164.08,85.65,164.08,85.65Z" style="fill:#ebebeb"></path><path d="M162.54,86.34l-.31,0-.93.06c-.81.07-2,.08-3.55.24a74.11,74.11,0,0,0-12.84,2.38,68.94,68.94,0,0,0-17.56,7.64,65.38,65.38,0,0,0-8.93,6.74,58,58,0,0,0-7.79,8.94,56.74,56.74,0,0,0-8.51,20.79,67.35,67.35,0,0,0-1.22,9.73c-.2,3.06-.16,5.93-.1,8.54.2,5.22.67,9.44,1,12.34.16,1.46.34,2.58.43,3.35,0,.36.08.65.1.87a1.36,1.36,0,0,1,0,.3,1.48,1.48,0,0,1-.07-.29c0-.22-.09-.51-.16-.87-.12-.76-.34-1.88-.53-3.33a121,121,0,0,1-1.21-12.36c-.09-2.62-.15-5.49,0-8.58a67.88,67.88,0,0,1,1.18-9.78,52.61,52.61,0,0,1,16.43-30,64.24,64.24,0,0,1,9-6.78,69.17,69.17,0,0,1,30.65-9.82c1.54-.14,2.75-.11,3.57-.15h.93A1.43,1.43,0,0,1,162.54,86.34Z" style="fill:#e0e0e0"></path><path d="M98.08,168.47l-.7-.93s17.61-34.18,50.14-36.92,50.32,14.77,54.33,18.36,14.55,16.66,14.55,16.66L194.78,160s-14.55-17.09-22.39-18.15c0,0,19.9,19.41,23,32.92,0,0-14.73-6.12-17.6-6.12,0,0-7.47-12.74-16.84-16.08l8.42,12.91L149.81,160l-6.91-6.67-1.12,5.4S124.29,154.34,98.08,168.47Z" style="fill:#ebebeb"></path><path d="M98.08,168.35c.23,0,.5-.09.8-.13,6.05-.7,25.48,1.15,25.48,1.15l.77-3.41,4,7.68,13.63,7.69-1.52-10.78c1.92,1.07,7.72,14.88,7.72,14.88l8.06,9.9-.79-14.85c5.58,5.63,7.28,22.2,7.28,22.2L174.85,215c.31-9.22-6.2-36.71-27.88-50.25S98.08,168.35,98.08,168.35Z" style="fill:#ebebeb"></path><path d="M98.18,168.25C94.78,161.92,81,148.82,81,148.82L85,145.58l-8.9.49L60,137l7.34-5c-2.29-1.28-15.9,1.65-15.9,1.65l-13.29-3.34,9.7-5.21c-9-2.22-21,3.07-21,3.07l-19.17-4c8.47-5.61,38.61-19.63,65.91-6.18s27.88,49.88,27.88,49.88" style="fill:#ebebeb"></path><path d="M100,167.55c-.24-.1-1.45.81-1.77.7-6.37-2.16-23,.85-23,.85l0-3.71-6.3,7-16.69,4.71,4.37-10.75c-2.36.64-12.11,13.51-12.11,13.51L32.05,190.72l4.6-15.14c-3.12,3.64-12.28,18.62-12.28,18.62L9,204.21c2-9.58,13.55-42.16,40.43-51S100,167.55,100,167.55Z" style="fill:#ebebeb"></path><path d="M167.87,139.09a7.29,7.29,0,0,1-.77-.23,18.2,18.2,0,0,0-2.24-.51,26.65,26.65,0,0,0-3.62-.29c-1.42-.05-3,.06-4.82.1A79.08,79.08,0,0,0,115.88,152l-1.46,1c-.47.34-.91.7-1.36,1-.9.69-1.78,1.34-2.6,2-1.6,1.39-3.15,2.62-4.42,3.9l-1.86,1.78-1.58,1.67c-1,1.05-1.83,2-2.46,2.74l-1.51,1.78a5,5,0,0,1-.55.6,4.94,4.94,0,0,1,.47-.66L100,166c.61-.81,1.44-1.74,2.41-2.8.49-.53,1-1.11,1.56-1.71s1.2-1.17,1.84-1.81c1.26-1.3,2.81-2.55,4.4-4,.82-.69,1.71-1.34,2.6-2,.45-.34.9-.7,1.37-1l1.46-1a77.31,77.31,0,0,1,40.77-13.79c1.79,0,3.41-.1,4.84,0a24.14,24.14,0,0,1,3.64.38,12.86,12.86,0,0,1,2.24.6l.56.22Z" style="fill:#e0e0e0"></path><path d="M156.63,129.86l-.74,0c-.49,0-1.2,0-2.13,0a54.65,54.65,0,0,0-7.76.74,61.29,61.29,0,0,0-23.77,9.52A79.17,79.17,0,0,0,103.5,158c-2,2.66-3.53,4.91-4.55,6.49-.52.78-.89,1.41-1.16,1.82a4.29,4.29,0,0,1-.43.62,5.38,5.38,0,0,1,.35-.67c.25-.43.59-1.08,1.09-1.87,1-1.61,2.44-3.9,4.44-6.59A76.5,76.5,0,0,1,122,139.75a60.2,60.2,0,0,1,24-9.45,48.65,48.65,0,0,1,7.81-.58c.93,0,1.65.05,2.13.07A3.86,3.86,0,0,1,156.63,129.86Z" style="fill:#e0e0e0"></path><path d="M139.18,160.33a12.73,12.73,0,0,1-1.66-.1c-1.07-.09-2.62-.21-4.53-.27s-4.2,0-6.73.1l-2,.11a13.58,13.58,0,0,0-2,.21c-1.34.23-2.73.56-4.17.85a28.33,28.33,0,0,0-4.08,1.08c-1.3.44-2.55.87-3.74,1.3-2.37.86-4.47,1.69-6.23,2.41L100,167.77a12,12,0,0,1-1.54.62,1.62,1.62,0,0,1,.36-.22c.25-.14.61-.33,1.09-.56,1-.48,2.34-1.14,4.09-1.9s3.84-1.63,6.21-2.51c1.19-.45,2.44-.89,3.74-1.33a27.71,27.71,0,0,1,4.15-1.11c1.42-.29,2.81-.62,4.18-.85a14.79,14.79,0,0,1,2.06-.2l1.95-.09c2.54-.11,4.84-.1,6.76,0s3.47.27,4.54.42c.53.07.94.14,1.22.19S139.19,160.31,139.18,160.33Z" style="fill:#e0e0e0"></path><path d="M99.48,161.56a5.3,5.3,0,0,1-.26-.59c-.16-.45-.38-1-.65-1.72-.13-.38-.29-.79-.45-1.24s-.4-.93-.62-1.45c-.46-1-.92-2.24-1.59-3.51l-1-2c-.35-.69-.78-1.39-1.19-2.12-.8-1.48-1.82-3-2.85-4.57a79,79,0,0,0-7.82-9.61,81.51,81.51,0,0,0-9.42-8.23c-1.59-1.11-3.07-2.2-4.56-3.09-.74-.45-1.43-.92-2.13-1.31l-2-1.13c-1.27-.74-2.5-1.29-3.55-1.81-.53-.26-1-.51-1.47-.72l-1.27-.54-1.75-.76a2.84,2.84,0,0,1-.6-.3,2.69,2.69,0,0,1,.64.2l1.79.68,1.3.5,1.49.68c1.07.51,2.32,1,3.61,1.76l2,1.1c.71.39,1.41.85,2.16,1.3,1.5.87,3,2,4.61,3.07a78.17,78.17,0,0,1,9.52,8.26,75,75,0,0,1,7.84,9.7c1,1.61,2,3.12,2.82,4.62.4.74.83,1.44,1.17,2.15l1,2c.65,1.28,1.09,2.49,1.52,3.54.21.53.42,1,.58,1.48s.29.87.41,1.26c.23.72.41,1.3.56,1.75A2.35,2.35,0,0,1,99.48,161.56Z" style="fill:#e0e0e0"></path><path d="M80.65,122.78A14.58,14.58,0,0,1,82,123.9c.42.37.92.83,1.47,1.4s1.2,1.19,1.85,1.94a56.48,56.48,0,0,1,4.33,5.44A61.08,61.08,0,0,1,93.92,140a58.14,58.14,0,0,1,3.1,7.8,51.63,51.63,0,0,1,1.59,6.64c.19.95.27,1.83.37,2.59a18.45,18.45,0,0,1,.18,2,9.74,9.74,0,0,1,0,1.68A12,12,0,0,1,99,159c-.06-.54-.13-1.19-.27-1.95s-.23-1.62-.44-2.56a60.31,60.31,0,0,0-1.69-6.56,65.18,65.18,0,0,0-3.12-7.73,64.75,64.75,0,0,0-4.22-7.23A61.9,61.9,0,0,0,85,127.47c-.62-.76-1.25-1.4-1.78-2s-1-1.06-1.39-1.45A8.92,8.92,0,0,1,80.65,122.78Z" style="fill:#e0e0e0"></path><path d="M32.07,172.49s.14-.2.44-.54.73-.84,1.36-1.44a42.62,42.62,0,0,1,5.64-4.72,47,47,0,0,1,9.68-5.27A48,48,0,0,1,76.1,157.8,48.69,48.69,0,0,1,86.75,161a44.74,44.74,0,0,1,6.57,3.48c.74.46,1.27.88,1.65,1.14a4.21,4.21,0,0,1,.55.43,2.94,2.94,0,0,1-.61-.34c-.4-.24-1-.63-1.71-1.06A49.27,49.27,0,0,0,49.39,161,48.72,48.72,0,0,0,34,170.65c-.65.57-1.1,1.07-1.43,1.37A4.12,4.12,0,0,1,32.07,172.49Z" style="fill:#e0e0e0"></path><path d="M387.06,116.73s27.55,120.4,18.09,317.71H377.79s19.57-222.06,1.31-316.8Z" style="fill:#f5f5f5"></path><path d="M388,313.48a21.68,21.68,0,0,0,12.91-.65c-.05-.18-2.87.54-6.44.7S388,313.29,388,313.48Z" style="fill:#ebebeb"></path><path d="M390.7,288.78a16.67,16.67,0,0,0,5.47.62c3.06,0,5.51-.47,5.48-.63a54.28,54.28,0,0,0-5.48,0C393.16,288.8,390.72,288.6,390.7,288.78Z" style="fill:#ebebeb"></path><path d="M388.64,259.63a17.53,17.53,0,0,0,10,.22c0-.18-2.26.09-5,0S388.67,259.45,388.64,259.63Z" style="fill:#ebebeb"></path><path d="M391.11,233.07a16.65,16.65,0,0,0,9.3-.73c-.05-.17-2.09.23-4.64.43S391.13,232.89,391.11,233.07Z" style="fill:#ebebeb"></path><path d="M389.67,205a5.87,5.87,0,0,0,3.18.12,5.78,5.78,0,0,0,3-1,16,16,0,0,0-3.1.43A15.34,15.34,0,0,0,389.67,205Z" style="fill:#ebebeb"></path><path d="M388.33,173.9a10.37,10.37,0,0,0,6.1-.36,11.26,11.26,0,0,0-3.06,0A10.56,10.56,0,0,0,388.33,173.9Z" style="fill:#ebebeb"></path><path d="M383.13,142.82a6,6,0,0,0,2.91-.2,6.12,6.12,0,0,0,2.7-1.06c-.05-.17-1.32.12-2.84.47A9,9,0,0,0,383.13,142.82Z" style="fill:#ebebeb"></path><path d="M390.94,340.84a38.31,38.31,0,0,0,9.57,0c0-.17-2.14-.31-4.79-.31S390.94,340.67,390.94,340.84Z" style="fill:#ebebeb"></path><path d="M384,363.5c0,.17,2.15.31,4.79.31s4.79-.14,4.79-.31a38.39,38.39,0,0,0-9.58,0Z" style="fill:#ebebeb"></path><path d="M311.48,20.94c.32.09.68.21,1.09.36,8,3,31.39,17.17,31.39,17.17l3-3.34.63,11.1,12.71,17.08,4.31-13c1.81,2.39,1.12,21.43,1.12,21.43l4.44,16.09,7.58-17.09c3.77,9.77-3.65,29.34-3.65,29.34l7.84,18.61c5.71-10.11,12.69-42.71-6.79-71.34S311.48,20.94,311.48,20.94Z" style="fill:#ebebeb"></path><path d="M313.24,21.75a1.45,1.45,0,0,0,.36.05l1,.08c.93.08,2.31.09,4.06.28A81.48,81.48,0,0,1,333.36,25a77.51,77.51,0,0,1,20,9,73.32,73.32,0,0,1,10.19,8,67.56,67.56,0,0,1,8.89,10.57,68.37,68.37,0,0,1,9.71,24.59,83.1,83.1,0,0,1,1.4,11.5c.23,3.63.18,7,.11,10.11-.23,6.18-.76,11.17-1.18,14.6-.19,1.72-.39,3-.5,4,0,.42-.08.76-.12,1s0,.35,0,.35a1.85,1.85,0,0,0,.08-.34q.06-.39.18-1c.14-.9.38-2.23.61-4,.49-3.43,1.09-8.42,1.38-14.61.1-3.1.17-6.51,0-10.15a82.29,82.29,0,0,0-1.35-11.58A68.19,68.19,0,0,0,373,52.23a67.91,67.91,0,0,0-9-10.67,73.9,73.9,0,0,0-10.3-8,77.11,77.11,0,0,0-35-11.61c-1.76-.16-3.14-.13-4.07-.18H313.6A2,2,0,0,0,313.24,21.75Z" style="fill:#e0e0e0"></path><path d="M386.81,118.91l.79-1.1s-20.09-40.43-57.21-43.68S273,91.6,268.37,95.84s-16.59,19.72-16.59,19.72l24.67-6.74S293.05,88.61,302,87.36c0,0-22.71,23-26.2,38.93,0,0,16.81-7.23,20.09-7.23,0,0,8.51-15.07,19.21-19l-9.61,15.27,22.28-6.49,7.88-7.88,1.29,6.39S356.89,102.19,386.81,118.91Z" style="fill:#ebebeb"></path><path d="M386.81,118.76c-.27-.06-.58-.11-.92-.15-6.9-.83-29.08,1.36-29.08,1.36l-.88-4-4.6,9.09-15.55,9.1,1.74-12.75c-2.2,1.26-8.81,17.59-8.81,17.59l-9.21,11.72.9-17.57c-6.36,6.66-8.31,26.26-8.31,26.26l-12.9,14.54c-.35-10.91,7.07-43.43,31.82-59.44S386.81,118.76,386.81,118.76Z" style="fill:#ebebeb"></path><path d="M386.69,118.64c3.88-7.48,19.56-23,19.56-23l-4.49-3.83,10.16.57,18.37-10.71-8.38-6c2.62-1.51,18.15,2,18.15,2l15.16-4-11.07-6.15c10.32-2.62,23.93,3.63,23.93,3.63L490,66.47c-9.66-6.64-44.06-23.22-75.22-7.32s-31.81,59-31.81,59" style="fill:#ebebeb"></path><path d="M384.67,117.82c.27-.13,1.65,1,2,.82,7.27-2.55,26.24,1,26.24,1l0-4.38,7.19,8.25,19.05,5.57-5-12.72c2.69.76,13.81,16,13.81,16l14.19,12.87-5.24-17.91c3.55,4.3,14,22,14,22l17.51,11.84c-2.27-11.34-15.46-49.87-46.14-60.33S384.67,117.82,384.67,117.82Z" style="fill:#ebebeb"></path><path d="M307.16,84.15a8.93,8.93,0,0,0,.88-.27,17.76,17.76,0,0,1,2.55-.6,30,30,0,0,1,4.13-.35c1.62-.05,3.47.08,5.51.12a87.22,87.22,0,0,1,30.87,7.52,89.53,89.53,0,0,1,15.39,8.82l1.66,1.17c.54.4,1.05.82,1.57,1.22,1,.82,2,1.58,3,2.37,1.83,1.64,3.59,3.1,5,4.62.75.74,1.45,1.44,2.13,2.1l1.8,2c1.12,1.24,2.09,2.3,2.81,3.24l1.72,2.11a5.59,5.59,0,0,0,.63.71,6.35,6.35,0,0,0-.55-.78L384.62,116c-.7-1-1.65-2.06-2.76-3.32-.55-.62-1.13-1.31-1.77-2L378,108.47c-1.44-1.54-3.2-3-5-4.69-.93-.8-1.95-1.57-3-2.4-.52-.41-1-.84-1.57-1.24L366.77,99a87.16,87.16,0,0,0-15.46-8.91,84.79,84.79,0,0,0-31.07-7.4c-2.05,0-3.9-.12-5.52,0a27.26,27.26,0,0,0-4.16.45,14.94,14.94,0,0,0-2.55.71,5.11,5.11,0,0,0-.64.27C307.23,84.1,307.15,84.14,307.16,84.15Z" style="fill:#e0e0e0"></path><path d="M320,73.23a4.7,4.7,0,0,0,.85,0c.56,0,1.37,0,2.43,0a61.66,61.66,0,0,1,8.85.87,68.74,68.74,0,0,1,27.13,11.26,91.44,91.44,0,0,1,21.38,21.14c2.3,3.14,4,5.8,5.19,7.67.59.92,1,1.66,1.33,2.15a5.94,5.94,0,0,0,.48.73,5.09,5.09,0,0,0-.39-.79c-.28-.51-.68-1.27-1.25-2.21-1.1-1.91-2.78-4.61-5.06-7.8a88.83,88.83,0,0,0-21.38-21.36,67.24,67.24,0,0,0-27.37-11.19,54.2,54.2,0,0,0-8.91-.69c-1.06,0-1.88.07-2.43.09A4.35,4.35,0,0,0,320,73.23Z" style="fill:#e0e0e0"></path><path d="M339.9,109.28a14,14,0,0,0,1.9-.13c1.22-.1,3-.24,5.17-.31s4.79,0,7.68.12l2.21.12a17.66,17.66,0,0,1,2.28.25c1.54.28,3.12.67,4.76,1a31,31,0,0,1,4.66,1.28c1.48.52,2.91,1,4.26,1.54,2.71,1,5.11,2,7.12,2.84l4.73,2.08a12,12,0,0,0,1.76.73s-.14-.11-.42-.27-.69-.38-1.24-.66c-1.08-.56-2.67-1.34-4.66-2.24s-4.39-1.93-7.09-3c-1.35-.53-2.78-1-4.27-1.57a29.07,29.07,0,0,0-4.73-1.31c-1.63-.35-3.22-.73-4.78-1a17.52,17.52,0,0,0-2.34-.24l-2.23-.11c-2.9-.13-5.52-.11-7.72,0s-4,.32-5.18.49c-.61.08-1.07.17-1.39.23A1.5,1.5,0,0,0,339.9,109.28Z" style="fill:#e0e0e0"></path><path d="M385.2,110.73a3.47,3.47,0,0,0,.3-.7l.74-2,.52-1.47c.2-.53.46-1.1.71-1.72.52-1.22,1-2.65,1.81-4.14l1.15-2.37c.4-.82.89-1.64,1.36-2.51.91-1.75,2.07-3.52,3.24-5.4a85.35,85.35,0,0,1,19.68-21.11c1.81-1.31,3.51-2.6,5.2-3.65.85-.54,1.63-1.09,2.43-1.56l2.31-1.32c1.45-.89,2.85-1.53,4.05-2.15.6-.3,1.16-.6,1.68-.85l1.45-.64,2-.9a3.21,3.21,0,0,0,.68-.36,5,5,0,0,0-.73.25l-2,.8-1.47.59c-.54.23-1.1.52-1.71.81-1.22.59-2.64,1.21-4.11,2.07l-2.35,1.31c-.81.45-1.61,1-2.46,1.53-1.72,1-3.43,2.32-5.26,3.63a90.62,90.62,0,0,0-10.87,9.77,89.8,89.8,0,0,0-8.95,11.48c-1.17,1.9-2.32,3.69-3.21,5.46-.47.88-.95,1.71-1.34,2.54l-1.11,2.4c-.75,1.52-1.25,3-1.74,4.2-.24.63-.48,1.2-.67,1.74s-.32,1-.47,1.49c-.26.85-.46,1.54-.63,2.07A4.28,4.28,0,0,0,385.2,110.73Z" style="fill:#e0e0e0"></path><path d="M406.7,64.86a11.69,11.69,0,0,0-1.51,1.33c-.48.43-1.06,1-1.68,1.65s-1.38,1.41-2.12,2.3a66,66,0,0,0-4.94,6.43,72.58,72.58,0,0,0-4.9,8.61A70.82,70.82,0,0,0,388,94.41a63.17,63.17,0,0,0-1.81,7.85c-.22,1.13-.31,2.16-.42,3.06s-.18,1.69-.21,2.33a12.91,12.91,0,0,0-.05,2,11.59,11.59,0,0,0,.29-2c.07-.64.16-1.41.31-2.31s.26-1.91.51-3a68.19,68.19,0,0,1,1.93-7.76,76.83,76.83,0,0,1,3.55-9.14,77.24,77.24,0,0,1,4.82-8.56,70.12,70.12,0,0,1,4.8-6.46c.71-.9,1.43-1.65,2-2.34s1.14-1.26,1.6-1.72A12.54,12.54,0,0,0,406.7,64.86Z" style="fill:#e0e0e0"></path><path d="M462.14,123.66a3.07,3.07,0,0,0-.5-.63c-.35-.39-.84-1-1.55-1.71a49.31,49.31,0,0,0-6.44-5.59,53.81,53.81,0,0,0-11-6.23,53.1,53.1,0,0,0-30.71-3.22,53.49,53.49,0,0,0-12.15,3.79,50.15,50.15,0,0,0-7.5,4.12c-.85.54-1.45,1-1.89,1.35a3.37,3.37,0,0,0-.62.51,5.49,5.49,0,0,0,.7-.42c.45-.27,1.08-.74,1.95-1.24a54.55,54.55,0,0,1,7.54-3.93,55.57,55.57,0,0,1,27.51-4.25,55.34,55.34,0,0,1,26,9.87,54.15,54.15,0,0,1,6.52,5.4c.74.68,1.25,1.26,1.64,1.63A5.11,5.11,0,0,0,462.14,123.66Z" style="fill:#e0e0e0"></path><polygon points="313.76 363.85 297.63 433.88 304.45 433.86 320.61 364.51 313.76 363.85" style="fill:#e0e0e0"></polygon><polygon points="343.18 363.85 359.36 433.88 365.84 433.88 350.18 363.85 343.18 363.85" style="fill:#e0e0e0"></polygon><polygon points="302.87 311.26 312.06 359.47 322.49 359.47 312.68 311.26 302.87 311.26" style="fill:#e0e0e0"></polygon><polygon points="142.93 363.85 129.78 433.88 136.48 433.88 150.22 363.85 142.93 363.85" style="fill:#e0e0e0"></polygon><polygon points="170.6 363.85 185.63 433.49 192.25 433.49 177.73 363.85 170.6 363.85" style="fill:#e0e0e0"></polygon><polygon points="132.05 311.26 141.23 359.47 151.67 359.47 141.86 311.26 132.05 311.26" style="fill:#e0e0e0"></polygon><polygon points="111.39 306.88 113.27 315.64 322.8 315.64 320.36 306.88 111.39 306.88" style="fill:#ebebeb"></polygon><polygon points="115.39 323.9 117.6 332.67 325.72 332.67 323.83 323.9 115.39 323.9" style="fill:#ebebeb"></polygon><polygon points="119.53 341.52 121.59 350.29 329.06 350.29 327.1 341.52 119.53 341.52" style="fill:#ebebeb"></polygon><rect x="135.39" y="359.47" width="223.73" height="8.77" style="fill:#ebebeb"></rect><path d="M264.25,49.46c.6-4.34-5.53-7.91-10.14-8.28-2.19-.18-4.48.16-6.56-.57-4.5-1.57-6.3-7.39-10.7-9.25-3.29-1.38-7.08-.15-10.26,1.46s-6.34,3.62-9.9,3.85c-3.1.2-6.46-1-9.17.56-2,1.13-3.08,3.45-4.94,4.83s-4.2,1.62-6.46,1.75-4.6.14-6.66,1.09-3.76,3.11-3.33,5.34Z" style="fill:#ebebeb"></path></g><g id="freepik--Floor--inject-22"><path d="M460.12,434.44c0,.14-96,.26-214.48.26s-214.5-.12-214.5-.26,96-.26,214.5-.26S460.12,434.3,460.12,434.44Z" style="fill:#263238"></path><path d="M460.86,445.07c0,.14-96,.26-214.48.26s-214.5-.12-214.5-.26,96-.26,214.5-.26S460.86,444.92,460.86,445.07Z" style="fill:#263238"></path><path d="M75.4,445.07a54.87,54.87,0,0,1,0-10.67,54.87,54.87,0,0,1,0,10.67Z" style="fill:#263238"></path><path d="M120.75,445.07a54.87,54.87,0,0,1,0-10.67,54.87,54.87,0,0,1,0,10.67Z" style="fill:#263238"></path><path d="M168,444.79a52.84,52.84,0,0,1,0-10.67,54.87,54.87,0,0,1,0,10.67Z" style="fill:#263238"></path><path d="M213.35,444.79a54.87,54.87,0,0,1,0-10.67,54.87,54.87,0,0,1,0,10.67Z" style="fill:#263238"></path><path d="M260.61,445.07a54.87,54.87,0,0,1,0-10.67,54.87,54.87,0,0,1,0,10.67Z" style="fill:#263238"></path><path d="M306,445.07a54.87,54.87,0,0,1,0-10.67,54.87,54.87,0,0,1,0,10.67Z" style="fill:#263238"></path><path d="M353.21,445.07a54.87,54.87,0,0,1,0-10.67,54.87,54.87,0,0,1,0,10.67Z" style="fill:#263238"></path><path d="M398.55,445.07a54.87,54.87,0,0,1,0-10.67,54.87,54.87,0,0,1,0,10.67Z" style="fill:#263238"></path></g><g id="freepik--Plant--inject-22"><path d="M421.78,381.36a10,10,0,0,1,5.55,5.5,17.54,17.54,0,0,1,1.22,7.87c-.23,5.18-2.8,10.56-5.67,14.88-4.58-3.48-6-10-6.54-13.36-.83-5.3.89-15.38,5.44-14.89" style="fill:#455a64"></path><path d="M428.48,417.75a8.52,8.52,0,0,1,2.2-8.26,11.28,11.28,0,0,1,8.15-3.16,4.76,4.76,0,0,1,3.76,1.39,3.64,3.64,0,0,1,.3,3.68,7.31,7.31,0,0,1-2.54,2.87c-3.59,2.61-7.54,4.47-11.87,3.48" style="fill:#455a64"></path><path d="M424,433.88a6.88,6.88,0,0,1,.09-1.06c.08-.76.19-1.73.33-2.89a29.94,29.94,0,0,1,2.33-9.32,18.24,18.24,0,0,1,6.07-7.39,12.66,12.66,0,0,1,2.59-1.36c.32-.13.58-.19.75-.25s.27-.07.28-.05a16.92,16.92,0,0,0-9.35,9.21,32,32,0,0,0-2.41,9.19c-.18,1.22-.33,2.2-.45,2.88A5,5,0,0,1,424,433.88Z" style="fill:#263238"></path><path d="M421.14,389.15a3.06,3.06,0,0,1,.09.46c0,.34.09.78.16,1.32.14,1.15.32,2.81.53,4.86.41,4.11.9,9.79,1.29,16.08s.63,12,.74,16.12c.05,2.06.08,3.73.09,4.89v1.33a1.84,1.84,0,0,1,0,.46,2.43,2.43,0,0,1-.05-.46c0-.34,0-.78-.07-1.33-.05-1.2-.12-2.85-.21-4.88-.17-4.12-.44-9.82-.84-16.1s-.84-12-1.19-16.08c-.17-2-.3-3.68-.4-4.87,0-.55-.07-1-.1-1.33A2.43,2.43,0,0,1,421.14,389.15Z" style="fill:#263238"></path><path d="M421.21,421.38a19.94,19.94,0,0,0-11.84-13.82c-1.49-.6-3.41-.92-4.53.23s-.72,3.08,0,4.53a17,17,0,0,0,16.32,9.49" style="fill:#455a64"></path><path d="M410.4,412.39a4.23,4.23,0,0,1,1,.33,9.31,9.31,0,0,1,1.07.49,13.78,13.78,0,0,1,1.38.74c.49.3,1,.62,1.59,1a21.31,21.31,0,0,1,1.7,1.35,22.49,22.49,0,0,1,3.32,3.72,21.41,21.41,0,0,1,2.32,4.42,18.17,18.17,0,0,1,.65,2.08,15.15,15.15,0,0,1,.39,1.86A14.24,14.24,0,0,1,424,430a8.31,8.31,0,0,1,0,1.18,5.66,5.66,0,0,1,0,1c-.09,0,0-1.43-.44-3.69a14.76,14.76,0,0,0-.43-1.82,19.21,19.21,0,0,0-.67-2,22.5,22.5,0,0,0-2.3-4.33,23.68,23.68,0,0,0-3.25-3.68,21.19,21.19,0,0,0-1.66-1.36c-.52-.42-1.06-.74-1.54-1.06C411.71,413,410.37,412.46,410.4,412.39Z" style="fill:#263238"></path></g><g id="freepik--Sun--inject-22"><circle cx="86.71" cy="70.79" r="13.65" transform="translate(3.33 145.46) rotate(-81.07)" style="fill:#7E57C2"></circle><path d="M86.71,84.44a13.63,13.63,0,0,1-5.32-1.07,13.67,13.67,0,0,1,0-25.17,13.66,13.66,0,1,1,5.32,26.24Z" style="fill:#7E57C2"></path><path d="M84.77,101.3a53.87,53.87,0,0,1-.15-5.63A53.87,53.87,0,0,1,84.77,90c.07,0,.14,2.52.14,5.63S84.84,101.3,84.77,101.3Z" style="fill:#7E57C2"></path><path d="M84.77,101.31s-.08,0-.12-1.66c0-1.06,0-2.48,0-4s0-2.92,0-4c0-1.66.09-1.66.12-1.66s.07,0,.11,1.66c0,1.06,0,2.48,0,4s0,2.92,0,4C84.84,101.31,84.79,101.31,84.77,101.31Zm0-11.24c-.07.2-.13,2.34-.13,5.6s.06,5.39.13,5.6c.06-.21.12-2.34.12-5.6S84.83,90.27,84.77,90.07Z" style="fill:#7E57C2"></path><path d="M76.9,86.87c.07,0-1.21,2.39-2.86,5.25S71,97.27,70.92,97.23s1.21-2.39,2.87-5.26S76.83,86.83,76.9,86.87Z" style="fill:#7E57C2"></path><path d="M70.92,97.24h0s-.06,0,.79-1.59c.54-1,1.27-2.3,2.07-3.68s1.57-2.68,2.16-3.64c.82-1.36.94-1.48,1-1.48h0s.06,0-.78,1.58c-.55,1-1.28,2.3-2.08,3.69-1.42,2.45-3,5.08-3.12,5.11Zm6-10.35c-.17.16-1.36,2.09-3.09,5.09S71,97,70.93,97.2c.17-.16,1.36-2.09,3.09-5.09S76.83,87.12,76.89,86.89Z" style="fill:#7E57C2"></path><path d="M68.83,81.84a31,31,0,0,1-3.19,2.72,30.77,30.77,0,0,1-3.36,2.49,31,31,0,0,1,3.19-2.72A32.46,32.46,0,0,1,68.83,81.84Z" style="fill:#7E57C2"></path><path d="M62.28,87.07h0s-.05-.06.9-.86c.6-.52,1.41-1.18,2.29-1.88a34.16,34.16,0,0,1,3.37-2.49h0s0,0,0,0a34,34,0,0,1-3.2,2.72c-.87.7-1.7,1.34-2.34,1.81A5.18,5.18,0,0,1,62.28,87.07Zm6.53-5.21a38.35,38.35,0,0,0-3.34,2.48A38.33,38.33,0,0,0,62.29,87a37.18,37.18,0,0,0,3.35-2.49A39.22,39.22,0,0,0,68.81,81.86Zm0,0Z" style="fill:#7E57C2"></path><path d="M98.38,95.75A7.18,7.18,0,0,1,98,94.37c-.2-.86-.48-2.05-.82-3.34s-.71-2.46-1-3.31a7.88,7.88,0,0,1-.38-1.37,6.47,6.47,0,0,1,.57,1.31,34.46,34.46,0,0,1,1,3.29c.35,1.31.6,2.51.75,3.38A6.58,6.58,0,0,1,98.38,95.75Z" style="fill:#7E57C2"></path><path d="M98.38,95.77s-.11-.21-.38-1.4c-.18-.8-.46-2-.82-3.34s-.72-2.53-1-3.3v0c-.34-1.12-.41-1.36-.37-1.38s0,0,.21.35l.39,1c.21.57.63,1.75,1,3.3s.64,2.78.74,3.38a6.65,6.65,0,0,1,.16,1.43Zm-2.52-9.4c0,.1.17.65.38,1.34h0c.24.77.6,2,1,3.3s.64,2.54.82,3.34.29,1.28.34,1.37a8.11,8.11,0,0,0-.17-1.4c-.1-.59-.32-1.82-.74-3.37s-.84-2.73-1-3.3A9.68,9.68,0,0,0,95.86,86.37Z" style="fill:#7E57C2"></path><path d="M112.22,85.93a47.09,47.09,0,0,1-4-3.33c-2.18-1.91-3.9-3.5-3.85-3.55a47.09,47.09,0,0,1,4,3.33A47.72,47.72,0,0,1,112.22,85.93Z" style="fill:#7E57C2"></path><path d="M112.21,86a51.89,51.89,0,0,1-4-3.34c-1.06-.92-2-1.8-2.76-2.47-1.14-1-1.11-1.08-1.09-1.1a0,0,0,0,1,0,0h0a51.89,51.89,0,0,1,4,3.34c1.06.92,2,1.79,2.76,2.47,1.14,1,1.11,1.08,1.09,1.1h0Zm-7.85-6.89c.1.17,1.55,1.53,3.83,3.53s3.83,3.25,4,3.32c-.1-.17-1.55-1.52-3.83-3.52S104.54,79.14,104.36,79.06Z" style="fill:#7E57C2"></path><path d="M117.52,72.43a9.16,9.16,0,0,1-1.65-.23c-1-.17-2.4-.39-4-.57s-3-.28-4-.34a10.2,10.2,0,0,1-1.66-.15,9.54,9.54,0,0,1,1.67-.06c1,0,2.45.09,4,.27s3,.43,4,.65A9.13,9.13,0,0,1,117.52,72.43Z" style="fill:#7E57C2"></path><path d="M117.47,72.46c-.12,0-.45-.06-1.27-.19l-.33-.06c-1.38-.23-2.71-.42-4-.56s-2.58-.26-4-.35l-.33,0c-1.12-.07-1.34-.09-1.34-.14h0a10.16,10.16,0,0,1,1.68-.06c.71,0,2.17.06,4,.27a37.44,37.44,0,0,1,4,.65,9.67,9.67,0,0,1,1.62.43v0h0S117.51,72.46,117.47,72.46ZM106.3,71.15c.1,0,.61.06,1.3.1l.33,0c1.4.09,2.75.21,4,.35s2.57.33,4,.56l.32.06c.66.11,1.15.19,1.28.19h0a12.35,12.35,0,0,0-1.58-.42c-.69-.15-2.13-.43-4-.65s-3.3-.25-4-.26A11.59,11.59,0,0,0,106.3,71.15Z" style="fill:#7E57C2"></path><path d="M117.54,59.16c0,.08-2.94.87-6.6,1.76s-6.65,1.55-6.67,1.47,2.94-.86,6.6-1.75S117.52,59.09,117.54,59.16Z" style="fill:#7E57C2"></path><path d="M104.3,62.41h0s0-.07,1.93-.59c1.24-.33,2.91-.75,4.68-1.19s3.44-.82,4.7-1.1c2-.43,2-.38,2-.36h0s0,.07-1.93.59c-1.24.33-2.91.75-4.68,1.18s-3.44.82-4.7,1.1A15.9,15.9,0,0,1,104.3,62.41Zm13.21-3.24c-.27,0-2.8.55-6.64,1.48s-6.33,1.61-6.57,1.74c.27,0,2.8-.55,6.64-1.49S117.27,59.29,117.51,59.17Z" style="fill:#7E57C2"></path><path d="M102.12,43.7c.06,0-1.35,2.3-3.16,5a59.23,59.23,0,0,1-3.4,4.87c-.06,0,1.35-2.3,3.16-5S102.05,43.66,102.12,43.7Z" style="fill:#7E57C2"></path><path d="M95.57,53.63h0c0-.13,1.61-2.69,3.16-5,.88-1.33,1.71-2.56,2.35-3.48,1-1.42,1-1.42,1.07-1.4h0s.06,0-.88,1.52c-.59,1-1.4,2.21-2.28,3.53s-1.71,2.56-2.35,3.48A8,8,0,0,1,95.57,53.63Zm6.53-9.91c-.17.15-1.47,2-3.37,4.86s-3.08,4.79-3.15,5c.18-.15,1.47-2,3.37-4.86S102,43.94,102.1,43.72Z" style="fill:#7E57C2"></path><path d="M86.81,40.47a11.18,11.18,0,0,1,0,1.87c0,1.16,0,2.75,0,4.52s0,3.35,0,4.51a13.89,13.89,0,0,1,0,1.87,10.58,10.58,0,0,1-.19-1.86c-.07-1.16-.13-2.76-.13-4.52s0-3.37.12-4.52A13,13,0,0,1,86.81,40.47Z" style="fill:#7E57C2"></path><path d="M86.83,53.26s0,0-.1-.51-.07-.82-.1-1.37c0-.78-.13-2.4-.13-4.52s.07-3.75.12-4.53c0-.54.07-1,.1-1.36s.07-.51.09-.51h0s.05.17,0,1.88c0,1.09,0,2.74,0,4.52s0,3.29,0,4.44v.07c0,1.71,0,1.88,0,1.89Zm0-12.76c0,.12-.1.77-.16,1.84-.05.78-.13,2.4-.13,4.52s.09,3.74.14,4.52a14.35,14.35,0,0,0,.17,1.83c0-.15,0-1.16,0-1.84V51.3c0-1.15,0-2.72,0-4.44s0-3.43,0-4.52C86.83,41.66,86.84,40.66,86.81,40.5Z" style="fill:#7E57C2"></path><path d="M75.23,54.9c-.07,0-1.51-2.19-3.21-5s-3-5.08-3-5.12a56.36,56.36,0,0,1,3.21,5C74,52.56,75.29,54.86,75.23,54.9Z" style="fill:#7E57C2"></path><path d="M75.23,54.92s-.16-.12-1-1.44c-.6-.94-1.39-2.2-2.22-3.55-1.46-2.39-3-5-3-5.13v0s.07,0,1,1.44c.61.94,1.4,2.2,2.22,3.55s1.59,2.62,2.15,3.59c.88,1.52.84,1.54.81,1.55h0Zm-6.16-10.1c.06.22,1.17,2.17,3,5.1s3,4.8,3.18,5c-.06-.22-1.17-2.17-3-5.1S69.23,45,69.07,44.82Z" style="fill:#7E57C2"></path><path d="M68.3,60.79a8.3,8.3,0,0,1-1.45-.23c-.88-.19-2.1-.49-3.43-.88s-2.51-.8-3.36-1.13A7.34,7.34,0,0,1,58.72,58a8.52,8.52,0,0,1,1.41.4c.86.28,2,.65,3.37,1s2.53.72,3.4,1A7.37,7.37,0,0,1,68.3,60.79Z" style="fill:#7E57C2"></path><path d="M68.26,60.81l-.35,0c-.27,0-.64-.11-1.06-.2-.6-.13-1.84-.41-3.43-.88s-2.79-.9-3.36-1.12l-1-.41c-.37-.17-.36-.19-.35-.21s.2,0,1.42.4c.7.22,2,.63,3.38,1s2.42.69,3.39,1c1.24.34,1.43.4,1.42.45h0S68.31,60.81,68.26,60.81ZM58.74,58a11.27,11.27,0,0,0,1.33.57c.57.22,1.77.66,3.36,1.13s2.83.75,3.43.87a10.5,10.5,0,0,0,1.4.24h0c-.1-.06-.81-.25-1.38-.41-1-.26-2.13-.58-3.4-.95s-2.68-.83-3.37-1.05A14,14,0,0,0,58.74,58Z" style="fill:#7E57C2"></path><path d="M65.28,71.27a33.21,33.21,0,0,1-4.35.56,34.33,34.33,0,0,1-4.39.28,33.54,33.54,0,0,1,4.36-.56A32.09,32.09,0,0,1,65.28,71.27Z" style="fill:#7E57C2"></path><path d="M56.79,72.15a.55.55,0,0,1-.25,0,0,0,0,0,1,0,0v0a38,38,0,0,1,4.37-.56,36.91,36.91,0,0,1,4.39-.28v0h0a36.65,36.65,0,0,1-4.36.57C59.25,72,57.45,72.15,56.79,72.15Zm-.23,0a43.44,43.44,0,0,0,4.36-.29,39.84,39.84,0,0,0,4.34-.55,40.16,40.16,0,0,0-4.36.29A37.48,37.48,0,0,0,56.56,72.11Z" style="fill:#7E57C2"></path></g><g id="freepik--Lines--inject-22"><path d="M285.1,378.57c.15,0,.07,9.24-.18,20.63s-.55,20.62-.7,20.62-.06-9.24.18-20.63S285,378.57,285.1,378.57Z" style="fill:#263238"></path><path d="M291.76,383.36c.14,0,.24,8.08.22,18s-.16,18.05-.3,18.05-.25-8.08-.22-18.05S291.61,383.36,291.76,383.36Z" style="fill:#263238"></path><path d="M192.56,293.72c-.14,0-.36-5.75-.49-12.86S192,268,192.09,268s.37,5.76.5,12.87S192.7,293.72,192.56,293.72Z" style="fill:#263238"></path><path d="M184.65,314.78c-.15,0-.26-11.73-.26-26.2s.11-26.21.26-26.21.26,11.73.26,26.21S184.79,314.78,184.65,314.78Z" style="fill:#263238"></path></g><g id="freepik--Character--inject-22"><path d="M246.64,81.21A5.8,5.8,0,0,0,243,77.62a3.31,3.31,0,0,1-1.9-.94,4.6,4.6,0,0,1-.43-1.48,2.93,2.93,0,0,0-3.78-1.86,3.4,3.4,0,0,1-1.09.39c-1.58.09-1.88-2.94-3.46-2.84a3.21,3.21,0,0,1,.9,1.76,1.5,1.5,0,0,1-.92,1.6c-1.67.5-2.55-2.73-4.27-2.47-.92.14-1.58,1.3-2.5,1.12a3,3,0,0,1-1-.52,2.4,2.4,0,0,0-3.18.81c-.53.9-.59,2.27-1.58,2.57a2.25,2.25,0,0,1-1.79-.53,6.19,6.19,0,0,0-.53,2.78,3.76,3.76,0,0,0-3.27,4.08,8,8,0,0,0-2.91,1.11,2.8,2.8,0,0,0-1.25,2.68,2.76,2.76,0,0,1,.11.7,1.36,1.36,0,0,1-.31.69,13,13,0,0,0-1.76,2.39,1.91,1.91,0,0,0,.76,2.54c.22.08.48.12.61.31a.64.64,0,0,1,0,.51,6.66,6.66,0,0,1-1,1.87,2.83,2.83,0,0,0-.57,2c.14.7.93,1.29,1.57,1l-2.15,2.65c-.43.53-.88,1.19-.65,1.83.31.83,1.54.85,2.29.37s1.25-1.28,2-1.74a5.06,5.06,0,0,0,.92-.57c.21-.2.38-.47.65-.55.56-.14.92.71.63,1.2a3.15,3.15,0,0,1-1.41,1c-.51.25-1,.71-1,1.28,0,.28.19.52.21.8.08,1-1.38,1.19-1.91,2a2.32,2.32,0,0,0,.06,2c.3.81,1.17,1.76,1.85,1.21.23-.19.33-.5.54-.72a2.18,2.18,0,0,1,.95-.43,4.53,4.53,0,0,0,2.14-1.46c-1,.52-2.24,1.28-2.2,2.44a4.62,4.62,0,0,0,.41,1.39c.32.9.32,1.88.62,2.79a2.21,2.21,0,0,0,2,1.7,2.15,2.15,0,0,0,2.38,3.44,1.82,1.82,0,0,1,.74-.23,1.47,1.47,0,0,1,.76.37,4.65,4.65,0,0,0,4.82.24l-.64-.63a10.72,10.72,0,0,0,4.95.72c1.66-.28,3.27-1.63,3.25-3.32,0-.73-.27-1.59.26-2.09a1.79,1.79,0,0,1,1.44-.28l6.29.58a5.61,5.61,0,0,0,3-.27,1.93,1.93,0,0,0,1-2.54,5.61,5.61,0,0,1,2.82-1.17c1.15-.12,2.31.12,3.46,0a3.12,3.12,0,0,0,2.83-1.67c.42-1.07-.66-2.55-1.73-2.12.87-1.51,3.73-.32,4.69-1.77.78-1.19-.54-2.6-.93-4,.37-.36.95-.44,1.34-.79.81-.74.28-2.09-.42-2.94s-1.6-1.77-1.37-2.84,1.6-1.83,1.47-2.94a1.23,1.23,0,0,0-1.31-1c.11-2.16-3.94-2.36-4.17-4.51a.82.82,0,0,1,.09-.49.84.84,0,0,1,.34-.28,9.17,9.17,0,0,1,2-.46c.68-.16,1.4-.62,1.45-1.31s-1.09-1.2-1.37-.56a1.55,1.55,0,0,0-2.39-.45,1.66,1.66,0,0,0-1.81-1,4.85,4.85,0,0,0-2.06.92" style="fill:#263238"></path><path d="M234,75.68s.12.07.3.23a1.83,1.83,0,0,1,.51.89,2.43,2.43,0,0,1-.16,1.58,7.07,7.07,0,0,1-1.23,1.74l-.09.1.12.06a4.33,4.33,0,0,1,2,2,3.41,3.41,0,0,1,.06,3.08,3.18,3.18,0,0,1-2.18,1.78l-.33.06.3.15a4,4,0,0,1,2,2.49,3.83,3.83,0,0,1-.21,2.57,4.24,4.24,0,0,1-1,1.4c-.31.27-.5.38-.49.4l.15-.07a4.14,4.14,0,0,0,.39-.27,4.06,4.06,0,0,0,1.09-1.4,4,4,0,0,0,.28-2.68,4.17,4.17,0,0,0-2.1-2.64l0,.21a3.39,3.39,0,0,0,2.35-1.89,3.5,3.5,0,0,0,.36-1.7,3.88,3.88,0,0,0-.43-1.59,4.51,4.51,0,0,0-2.12-2l0,.15a6.79,6.79,0,0,0,1.22-1.81,2.54,2.54,0,0,0,.13-1.67,1.78,1.78,0,0,0-.58-.91l-.25-.15Z" style="fill:#455a64"></path><path d="M214,84.23l.08.12c.06.08.14.2.26.34a5.8,5.8,0,0,0,1.22,1,6.32,6.32,0,0,0,2.3.86,5.85,5.85,0,0,0,3.1-.32l-.15-.09a5,5,0,0,0,2,3.72,3.73,3.73,0,0,0,4.37,0l-.18-.1a3.16,3.16,0,0,0,.22,1.6,4.37,4.37,0,0,0,.8,1.22,5.62,5.62,0,0,0,2,1.3,11.39,11.39,0,0,0,1.46.48,3.57,3.57,0,0,0,.54.12,2.47,2.47,0,0,0-.52-.19,13.49,13.49,0,0,1-1.43-.53,5.76,5.76,0,0,1-1.9-1.3,3.42,3.42,0,0,1-.94-2.67l0-.27-.21.17a3.54,3.54,0,0,1-4.1,0,4.76,4.76,0,0,1-1.91-3.55V86l-.14.06a5.76,5.76,0,0,1-3,.34,6.17,6.17,0,0,1-2.26-.8A7.35,7.35,0,0,1,214,84.23Z" style="fill:#455a64"></path><path d="M216,98s0,.06,0,.16a.87.87,0,0,0,.3.38,3.55,3.55,0,0,0,1.65.53,4.24,4.24,0,0,0,2.51-.55,4.35,4.35,0,0,0,1.92-2.48v0l-.21,0a5,5,0,0,0,2.56,1.8,5.44,5.44,0,0,0,2.55.18,6,6,0,0,0,1.65-.49,2.16,2.16,0,0,0,.55-.31,9.35,9.35,0,0,1-2.22.64,5.57,5.57,0,0,1-2.47-.22,4.87,4.87,0,0,1-2.43-1.74l-.14-.19-.07.23v0a4.09,4.09,0,0,1-4.2,2.93,3.83,3.83,0,0,1-1.61-.45A.79.79,0,0,1,216,98Z" style="fill:#455a64"></path><path d="M248.91,83.71a6.83,6.83,0,0,1-.78,2.27,5.24,5.24,0,0,1-4.84,2.59,5.1,5.1,0,0,1-1.78-.41l-.14,0,0,.14a6.78,6.78,0,0,1-.9,2.35,7.17,7.17,0,0,1-1.29,1.54,6.33,6.33,0,0,1-.6.47.59.59,0,0,1-.51.09.35.35,0,0,1-.23-.23.22.22,0,0,1,0-.12s0,0,0,.13a.38.38,0,0,0,.24.29.64.64,0,0,0,.59-.06,4.06,4.06,0,0,0,.64-.46,6.68,6.68,0,0,0,1.37-1.55,6.79,6.79,0,0,0,.95-2.41l-.15.08a5.34,5.34,0,0,0,1.85.44,5.29,5.29,0,0,0,5-2.75,5.15,5.15,0,0,0,.6-1.69,4,4,0,0,0,0-.49C248.92,83.77,248.92,83.71,248.91,83.71Z" style="fill:#455a64"></path><path d="M230.48,102c1.59-2.48,4.39-3.92,7.2-4.77a7.61,7.61,0,0,1,3.65-.39,3.15,3.15,0,0,1,2.56,2.36L243,101c-.9,3.16-4.22,4.85-6.42,7.29-1,1.06-1.91,2.4-3.34,2.47a3,3,0,0,1-2-.79C228.94,108.12,228.89,104.43,230.48,102Z" style="fill:#7E57C2"></path><path d="M226.26,122.45a6.58,6.58,0,0,1,1-8.38c-1.14-1.56-.6-3.87.68-5.31a12.87,12.87,0,0,1,4.93-3,8.84,8.84,0,0,1,10.59-6c2.44-3.27,7.34-3.58,11.19-2.27a10.48,10.48,0,0,0,2.88.76,17.5,17.5,0,0,0,2.17-.2c4-.36,7.82,2.61,9.21,6.38a7.46,7.46,0,0,0,.77,1.76,10,10,0,0,0,1.89,1.65,6.34,6.34,0,0,1,2.22,4.8c0,1.55-.56,3.16,0,4.59.29.72.85,1.31,1.08,2.06.64,2.15-1.81,4.21-1.47,6.43.07.45.25.88.36,1.33a4,4,0,0,1-.36,2.72,5.7,5.7,0,0,0-.95,1.93,6,6,0,0,0,.25,1.62c.21,1.33-2.85,6.27-4,6.94l-33.94-1.2a6.33,6.33,0,0,1-4.66-5.67,2.37,2.37,0,0,0-.26-1.27,2.78,2.78,0,0,0-.9-.64c-2.14-1.27-2.27-4.28-1.93-6.74a3,3,0,0,0,0-1A3.82,3.82,0,0,0,226.26,122.45Z" style="fill:#263238"></path><path d="M235.93,123.14a18.21,18.21,0,0,1,10.33-15.41A22.3,22.3,0,0,1,255,106a13.78,13.78,0,0,1,7.93,2c1.85.52,8.43,7.1,8.48,13.92.06,7.59-.16,16.84-1.36,22.43-2.43,11.24-11.2,12.21-11.2,12.21s-.05,2.75-.12,6.33l5.48.65c-.09,4.66-5.8,15.26-5.8,15.26h-22.5l-5.19-15.57,5.19-1.11Z" style="fill:#b56760"></path><path d="M253.21,141.56a2.4,2.4,0,0,1,.83-1.48,2.44,2.44,0,0,1,3-.17,3.28,3.28,0,0,1,1.25,3.08h0a3,3,0,0,1-2.13,1.23,2.71,2.71,0,0,1-.4,0,2.65,2.65,0,0,1-1.81-.71A2.38,2.38,0,0,1,253.21,141.56Z" style="fill:#8a4a43"></path><path d="M267.24,130.52a1.46,1.46,0,0,1-1.48,1.39,1.4,1.4,0,0,1-1.43-1.4,1.46,1.46,0,0,1,1.48-1.39A1.4,1.4,0,0,1,267.24,130.52Z" style="fill:#263238"></path><path d="M268.64,126c-.19.18-1.25-.69-2.81-.77s-2.75.63-2.91.43.12-.42.64-.75a3.94,3.94,0,0,1,2.35-.59,3.79,3.79,0,0,1,2.22.86C268.59,125.53,268.74,125.88,268.64,126Z" style="fill:#263238"></path><path d="M258.81,137.82a10.06,10.06,0,0,1,2.57-.32c.4,0,.78-.08.86-.35a2,2,0,0,0-.2-1.2l-1-3.1c-1.41-4.43-2.4-8-2.22-8.11s1.46,3.49,2.86,7.91l1,3.12a2.33,2.33,0,0,1,.12,1.58,1,1,0,0,1-.69.55,2.82,2.82,0,0,1-.68,0A10.37,10.37,0,0,1,258.81,137.82Z" style="fill:#263238"></path><path d="M258.87,156.39a28.94,28.94,0,0,1-15-4.88s3.48,8.09,14.88,7.66Z" style="fill:#8a4a43"></path><path d="M254.15,138.65c.25,0,.16,1.69,1.55,3s3.2,1.2,3.2,1.43-.42.31-1.18.29a4.24,4.24,0,0,1-2.68-1.1,3.7,3.7,0,0,1-1.2-2.5C253.82,139,254,138.63,254.15,138.65Z" style="fill:#263238"></path><path d="M268.33,120.07c-.28.37-1.47,0-2.87.08s-2.59.35-2.88,0c-.13-.18.05-.54.55-.9a4.2,4.2,0,0,1,2.32-.68,4.27,4.27,0,0,1,2.32.62C268.28,119.53,268.46,119.89,268.33,120.07Z" style="fill:#263238"></path><path d="M249.94,129.85a1.45,1.45,0,0,0,1.38,1.49,1.4,1.4,0,0,0,1.53-1.28,1.47,1.47,0,0,0-1.38-1.5A1.4,1.4,0,0,0,249.94,129.85Z" style="fill:#263238"></path><path d="M247.2,125.4c.18.2,1.3-.6,2.86-.57s2.71.84,2.88.65-.1-.43-.59-.81a4.07,4.07,0,0,0-2.3-.75,3.86,3.86,0,0,0-2.28.7C247.28,125,247.12,125.32,247.2,125.4Z" style="fill:#263238"></path><path d="M247.05,120.13c.3.37,1.52,0,3,0s2.68.28,3-.09c.13-.17-.06-.53-.59-.88a4.71,4.71,0,0,0-4.79,0C247.09,119.59,246.91,120,247.05,120.13Z" style="fill:#263238"></path><path d="M237.22,133.77c0-.84-.82-2.89-1.65-3.06-2.21-.47-6.23-.51-6.58,5.14-.47,7.72,7.38,6.61,7.41,6.39S237.06,136.69,237.22,133.77Z" style="fill:#b56760"></path><path d="M234.44,139.28s-.14.09-.37.18a1.37,1.37,0,0,1-1,0c-.8-.35-1.41-1.69-1.36-3.08a4.32,4.32,0,0,1,.5-1.91,1.56,1.56,0,0,1,1.07-1,.68.68,0,0,1,.77.42c.09.22,0,.37.08.39s.17-.12.13-.44a.88.88,0,0,0-.28-.51,1,1,0,0,0-.73-.24,1.9,1.9,0,0,0-1.48,1.11,4.69,4.69,0,0,0-.6,2.13c0,1.56.66,3.06,1.76,3.45a1.45,1.45,0,0,0,1.24-.12C234.41,139.47,234.47,139.3,234.44,139.28Z" style="fill:#8a4a43"></path><path d="M273.19,122a4.5,4.5,0,0,1-2.23-4.28c-1.06.25-2-1.14-2.59-2.07s-1.27-1.42-1.17-2.49a1.26,1.26,0,0,0,0-.64c-.14-.3-.5-.42-.82-.53a5.19,5.19,0,0,1-3.21-3.79,11,11,0,0,1-5.35.59,4.18,4.18,0,0,1-7.06-.69,3.77,3.77,0,0,1-2.62,1.71,10.79,10.79,0,0,1-3.21,0,4.45,4.45,0,0,1-3.19,4.87,1,1,0,0,0-.74.38c-.15.26,0,.59.07.87a3.5,3.5,0,0,1-2.58,4.32,2.6,2.6,0,0,1-.46,4.06c-.29.15-.66.34-.64.67a.79.79,0,0,0,.15.34,4.93,4.93,0,0,1,1.08,2.62,1.87,1.87,0,0,1-1.64,2,2.44,2.44,0,0,1,.89,1.75c0,.67-.74,1.32-1.35,1-.26-.12-4.07-1.08-4.23-1.32-2-3.09.9-6.22,1.32-9.89a23.86,23.86,0,0,1,3.91-10.26,17.76,17.76,0,0,1,2.94-3.58,23.73,23.73,0,0,1,4.42-2.9,21.65,21.65,0,0,1,6.36-2.62c4.23-.75,8.48,1,12.27,3a18.62,18.62,0,0,1,4.07,2.71,16.42,16.42,0,0,1,3.28,4.81,20.4,20.4,0,0,1,2.37,8.06" style="fill:#263238"></path><path d="M274.86,119.34a2.88,2.88,0,0,0-.38-.86c-.15-.26-.36-.57-.56-1a3.65,3.65,0,0,1-.36-1.47,11.08,11.08,0,0,1,.14-1.91,8.63,8.63,0,0,0,.06-2.29,6.4,6.4,0,0,0-.89-2.49,6,6,0,0,0-.89-1.15,10,10,0,0,0-1.17-1,4.6,4.6,0,0,1-1.12-1.08,6.3,6.3,0,0,1-.66-1.49,10,10,0,0,0-1.72-3.09,10.09,10.09,0,0,0-2.87-2.46,9.39,9.39,0,0,0-1.83-.8,8.45,8.45,0,0,0-2-.34,9.1,9.1,0,0,0-1,0l-1,.13a5,5,0,0,1-2.07-.1c-.68-.18-1.35-.46-2.05-.68a14.25,14.25,0,0,0-2.17-.5,13.13,13.13,0,0,0-2.27-.14,11.24,11.24,0,0,0-2.29.3,7.62,7.62,0,0,0-4,2.36c-.11.12-.21.25-.31.37l.13,0a9,9,0,0,0-10.74,6.09l.07-.07A23.63,23.63,0,0,0,230,107a8.1,8.1,0,0,0-2.32,1.86,5.33,5.33,0,0,0-1.14,2.61,3.68,3.68,0,0,0,.6,2.66V114a6.47,6.47,0,0,0-2,3.87,6.59,6.59,0,0,0,.61,3.89,7.83,7.83,0,0,0,.47.79,6.65,6.65,0,0,1,.5.72,1.64,1.64,0,0,1,.23.77,5.39,5.39,0,0,1-.06.8,12.24,12.24,0,0,0-.07,2.94,6.13,6.13,0,0,0,.64,2.27,3.8,3.8,0,0,0,1.14,1.32c.38.28.73.4.92.56s.26.25.27.24a1.06,1.06,0,0,0-.26-.27c-.18-.16-.53-.29-.9-.58a3.91,3.91,0,0,1-1.1-1.31,6.17,6.17,0,0,1-.6-2.24,12.59,12.59,0,0,1,.09-2.91,4.5,4.5,0,0,0,.07-.83,1.71,1.71,0,0,0-.25-.84,6.76,6.76,0,0,0-.5-.73,7.37,7.37,0,0,1-.45-.77,6.34,6.34,0,0,1-.57-3.79,6.26,6.26,0,0,1,1.94-3.76l.07-.06,0-.07a3.42,3.42,0,0,1-.56-2.51,5,5,0,0,1,1.11-2.51,7.91,7.91,0,0,1,2.26-1.81,24.92,24.92,0,0,1,2.76-1.27l0,0,0,0a8.76,8.76,0,0,1,10.45-5.92l.07,0,.06-.06.29-.36a7.46,7.46,0,0,1,3.91-2.29,11.36,11.36,0,0,1,2.24-.29,12.73,12.73,0,0,1,2.23.14,12.9,12.9,0,0,1,2.13.49c.69.21,1.36.5,2.07.67a4.87,4.87,0,0,0,1.07.17,5.51,5.51,0,0,0,1.08-.06c.35,0,.69-.1,1-.13a8.69,8.69,0,0,1,1,0,8,8,0,0,1,2,.32,8.66,8.66,0,0,1,1.79.78,10.18,10.18,0,0,1,4.52,5.43,6.37,6.37,0,0,0,.68,1.53,4.91,4.91,0,0,0,1.17,1.11,9.19,9.19,0,0,1,1.16,1,7,7,0,0,1,.88,1.11,6.4,6.4,0,0,1,.88,2.43,8.54,8.54,0,0,1,0,2.27,11,11,0,0,0-.12,1.93,3.63,3.63,0,0,0,.39,1.49c.21.4.43.71.58,1a5.85,5.85,0,0,1,.33.61A2.19,2.19,0,0,0,274.86,119.34Z" style="fill:#455a64"></path><path d="M247.14,98.3s.21-.11.6-.27a5,5,0,0,1,1.71-.41,4.92,4.92,0,0,1,2.52.5,5,5,0,0,1,2.2,2.22,4.06,4.06,0,0,1,.34.89,1,1,0,0,1-.1.82l-.2.25.32-.07a3.16,3.16,0,0,1,2.37.41,3,3,0,0,1,1.24,1.49,3.44,3.44,0,0,1,.24,1.29c0,.31,0,.48,0,.49s0,0,0-.12a2.06,2.06,0,0,0,.05-.36,3.19,3.19,0,0,0-1.44-3,3.37,3.37,0,0,0-2.53-.46l.11.18a1.21,1.21,0,0,0,.15-1,4.76,4.76,0,0,0-.36-1,5.23,5.23,0,0,0-2.31-2.3,5.07,5.07,0,0,0-4.37,0,3.07,3.07,0,0,0-.42.25C247.18,98.25,247.14,98.29,247.14,98.3Z" style="fill:#455a64"></path><path d="M234.14,106.52s.07.11.25.29a5.2,5.2,0,0,0,.85.65,3.45,3.45,0,0,0,1.51.54,2.74,2.74,0,0,0,1.95-.48l-.17,0,.21.33.25.32a4.81,4.81,0,0,0,1.87,1.3,5,5,0,0,0,1.83.33,4.54,4.54,0,0,0,1.23-.22,1.65,1.65,0,0,0,.42-.19,7,7,0,0,1-1.65.24,5.06,5.06,0,0,1-1.75-.36,4.6,4.6,0,0,1-1.77-1.26c-.08-.1-.16-.19-.24-.3l-.2-.31-.07-.1-.1.07a2.64,2.64,0,0,1-1.79.46,3.75,3.75,0,0,1-1.46-.47A13.07,13.07,0,0,1,234.14,106.52Z" style="fill:#455a64"></path><path d="M229.68,113.47s0,.06,0,.15a1.27,1.27,0,0,0,.15.38,2.1,2.1,0,0,0,1.2.89,3.89,3.89,0,0,0,2.22-.12,11.48,11.48,0,0,0,1.25-.42,2.09,2.09,0,0,0,1.12-.92l.05-.12-.18,0a8.48,8.48,0,0,0,2.22,1.49,4,4,0,0,0,2.16.34,2.83,2.83,0,0,0,1.37-.54,1.58,1.58,0,0,0,.29-.27c.06-.07.09-.11.08-.11s-.14.12-.42.31a3.07,3.07,0,0,1-1.34.45,3.84,3.84,0,0,1-2.05-.37,9,9,0,0,1-2.16-1.48l-.12-.1-.06.15-.05.1a1.92,1.92,0,0,1-1,.81,11.75,11.75,0,0,1-1.22.42,3.86,3.86,0,0,1-2.11.18,2.08,2.08,0,0,1-1.17-.79A2.12,2.12,0,0,1,229.68,113.47Z" style="fill:#455a64"></path><path d="M263,85.36s-.52,0-1.44,0a8.7,8.7,0,0,0-3.7,1,8,8,0,0,0-3.74,4.1,3.54,3.54,0,0,0,.11,3.11,2,2,0,0,0,2.82.56,1.47,1.47,0,0,0,.34-1.49,3.26,3.26,0,0,0-.89-1.4,5,5,0,0,0-3-1.18,6.06,6.06,0,0,0-5.05,2,6.53,6.53,0,0,0-1.55,3.46c-.12.91,0,1.42-.07,1.43a1.15,1.15,0,0,1-.1-.37,5,5,0,0,1,0-1.08,6.33,6.33,0,0,1,6.84-5.92,6,6,0,0,1,1.71.34,4.36,4.36,0,0,1,1.6.94,3.7,3.7,0,0,1,1,1.64,2,2,0,0,1-.47,2,2.12,2.12,0,0,1-2,.46,2.67,2.67,0,0,1-1.62-1.12,4,4,0,0,1-.13-3.54,8.23,8.23,0,0,1,4-4.27,8.35,8.35,0,0,1,3.87-.89,7.06,7.06,0,0,1,1.07.11C262.91,85.3,263,85.34,263,85.36Z" style="fill:#263238"></path><path d="M205.57,104.89c.05,0,0,.53.28,1.44a7.5,7.5,0,0,0,2,3.39,6.67,6.67,0,0,0,5.29,2,7.29,7.29,0,0,0,3.24-1,5.83,5.83,0,0,0,2.4-2.65,2.49,2.49,0,0,0-.78-3.09l.31,0a2,2,0,0,0,.24,2.51,3.19,3.19,0,0,0,2.44.87,9.19,9.19,0,0,0,4.41-1.36,6.43,6.43,0,0,0,2.18-2.16c.37-.63.47-1,.52-1a1.28,1.28,0,0,1-.05.29,4.19,4.19,0,0,1-.31.81,6.3,6.3,0,0,1-2.16,2.35,9.38,9.38,0,0,1-4.58,1.53,3.64,3.64,0,0,1-2.81-1,2.93,2.93,0,0,1-.71-1.48,2,2,0,0,1,.46-1.69l.13-.16.18.11a3,3,0,0,1,1,3.72,6.36,6.36,0,0,1-2.63,2.9,7.59,7.59,0,0,1-3.47,1.07,7,7,0,0,1-5.58-2.18,7.28,7.28,0,0,1-1.92-3.6,6.18,6.18,0,0,1-.12-1.11C205.54,105,205.55,104.89,205.57,104.89Z" style="fill:#455a64"></path><path d="M275.61,99.42s.1,0,.26.18a3.5,3.5,0,0,1,.57.69,4.29,4.29,0,0,1,.57,3.22,4.25,4.25,0,0,1-3.56,3.17,3.74,3.74,0,0,1-2.88-.7,2.07,2.07,0,0,1-.34-3.06,2,2,0,0,1,3,.66,2.76,2.76,0,0,1-.42,2.93,4.66,4.66,0,0,1-2.26,1.41,6.91,6.91,0,0,1-2.28.28,11.75,11.75,0,0,1-3.21-.65,4.38,4.38,0,0,1-1.09-.48,6.8,6.8,0,0,1,1.15.28,13,13,0,0,0,3.16.48,6.91,6.91,0,0,0,2.14-.32,4.25,4.25,0,0,0,2-1.3,2.28,2.28,0,0,0,.35-2.4,1.45,1.45,0,0,0-2.18-.51,1.33,1.33,0,0,0-.36,1.19,1.83,1.83,0,0,0,.66,1.1,3.35,3.35,0,0,0,2.49.62,3.89,3.89,0,0,0,3.27-2.79,4.24,4.24,0,0,0-.38-3C275.91,99.73,275.57,99.46,275.61,99.42Z" style="fill:#263238"></path><path d="M234.56,415.45c-.14.36-2.77.84-2.51,6.5s-1.72,12.41-1.58,15.18,1,12.91,7.38,13.67c4.08.48,6.09-3,7-5.41a9.33,9.33,0,0,0,.56-3.63l-.9-22a5.84,5.84,0,0,0-1.86-4.16,7.54,7.54,0,0,0-4.23-1.64A5.15,5.15,0,0,0,234.56,415.45Z" style="fill:#e0e0e0"></path><path d="M234.78,416.6c-.12.33-2.58.78-2.33,6.06s-1.6,11.57-1.48,14.15.9,12,6.88,12.74c3.81.45,5.68-2.79,6.51-5a8.83,8.83,0,0,0,.52-3.38L244,420.65a5.48,5.48,0,0,0-1.74-3.88,7,7,0,0,0-3.94-1.52A4.87,4.87,0,0,0,234.78,416.6Z" style="fill:#7E57C2"></path><path d="M242.44,433.6a7.17,7.17,0,0,1-7.65,0,22.12,22.12,0,0,0,3.82.59A23,23,0,0,0,242.44,433.6Z" style="fill:#263238"></path><path d="M242.49,436.22a5.88,5.88,0,0,1-3.83,1.1,5.82,5.82,0,0,1-3.82-1.11,21,21,0,0,0,3.82.59A22,22,0,0,0,242.49,436.22Z" style="fill:#263238"></path><path d="M242.44,439.08a7.12,7.12,0,0,1-7.65,0,21.55,21.55,0,0,0,3.82.6A21.25,21.25,0,0,0,242.44,439.08Z" style="fill:#263238"></path><path d="M239,432.8a3.56,3.56,0,0,1-1.61-.62,7.34,7.34,0,0,1-1.52-1.13,6.1,6.1,0,0,1-.75-.83,1.34,1.34,0,0,1-.31-.62.82.82,0,0,1,.28-.77,1.26,1.26,0,0,1,1.37-.12,3.79,3.79,0,0,1,1,.66,4.56,4.56,0,0,1,1.12,1.56,2.52,2.52,0,0,1,.26,1.71c-.09,0-.12-.66-.6-1.55a4.34,4.34,0,0,0-1.1-1.36c-.47-.41-1.22-.9-1.67-.51-.2.15-.12.41.09.7s.46.55.69.79a8.91,8.91,0,0,0,1.37,1.16A13.84,13.84,0,0,1,239,432.8Z" style="fill:#263238"></path><path d="M238.77,433a3.08,3.08,0,0,1,.17-1.71,6,6,0,0,1,.83-1.69,6.2,6.2,0,0,1,.72-.86,5.84,5.84,0,0,1,.44-.4,1.77,1.77,0,0,1,.6-.37.45.45,0,0,1,.54.31.93.93,0,0,1,0,.39,3.84,3.84,0,0,1-.11.59,4.91,4.91,0,0,1-.37,1.06,5.64,5.64,0,0,1-1.09,1.55,3,3,0,0,1-1.43.94c-.05-.07.51-.41,1.16-1.19a6.34,6.34,0,0,0,.92-1.49,6.24,6.24,0,0,0,.32-1c0-.18.07-.36.09-.54s0-.2,0-.2l.06,0s0,.13,0,.09a2.32,2.32,0,0,0-.39.26c-.14.12-.28.24-.41.37a6.87,6.87,0,0,0-1.56,2.31C238.9,432.31,238.86,433,238.77,433Z" style="fill:#263238"></path><path d="M259.8,432.69c.14.38,2.77.88,2.51,6.81s1.72,13,1.58,15.88-1,13.51-7.38,14.3c-4.08.51-6.09-3.14-7-5.66a10.18,10.18,0,0,1-.56-3.79l.9-23a6.24,6.24,0,0,1,1.86-4.35,7.44,7.44,0,0,1,4.23-1.72A5.06,5.06,0,0,1,259.8,432.69Z" style="fill:#e0e0e0"></path><path d="M259.58,433.89c.12.35,2.58.82,2.33,6.35s1.6,12.1,1.48,14.81-.9,12.59-6.88,13.33c-3.81.47-5.68-2.93-6.51-5.28a9.61,9.61,0,0,1-.52-3.53l.84-21.43a5.86,5.86,0,0,1,1.74-4.06,6.86,6.86,0,0,1,3.94-1.6A4.79,4.79,0,0,1,259.58,433.89Z" style="fill:#7E57C2"></path><path d="M251.92,451.68a19.57,19.57,0,0,0,3.83.62,19.1,19.1,0,0,0,3.82-.63,7,7,0,0,1-7.65,0Z" style="fill:#263238"></path><path d="M251.87,454.43a20.89,20.89,0,0,0,3.83.62,20.76,20.76,0,0,0,3.82-.63,5.69,5.69,0,0,1-3.82,1.15A5.78,5.78,0,0,1,251.87,454.43Z" style="fill:#263238"></path><path d="M251.92,457.42a19.57,19.57,0,0,0,3.83.62,19.1,19.1,0,0,0,3.82-.63,7,7,0,0,1-7.65,0Z" style="fill:#263238"></path><path d="M255.34,450.84c0-.07.58-.35,1.43-1a9.87,9.87,0,0,0,1.38-1.23,9.41,9.41,0,0,0,.68-.83c.21-.3.27-.57.07-.74-.45-.4-1.22.15-1.69.57a4.78,4.78,0,0,0-1.09,1.43c-.46.93-.49,1.61-.58,1.6a2.77,2.77,0,0,1,.25-1.76,4.76,4.76,0,0,1,1.09-1.62,4.2,4.2,0,0,1,1-.71,1.25,1.25,0,0,1,1.4.1.86.86,0,0,1,.29.78,1.45,1.45,0,0,1-.28.64,8.3,8.3,0,0,1-.76.87,7.6,7.6,0,0,1-1.51,1.2A3.51,3.51,0,0,1,255.34,450.84Z" style="fill:#263238"></path><path d="M255.59,451c-.09,0-.13-.67-.51-1.65a7,7,0,0,0-.86-1.6,6.52,6.52,0,0,0-.69-.82,5.23,5.23,0,0,0-.42-.39c-.14-.11-.32-.28-.39-.28s.09,0,.08-.06a.77.77,0,0,0,0,.2,5.43,5.43,0,0,0,.09.56,6.38,6.38,0,0,0,.31,1,7,7,0,0,0,.92,1.57c.65.82,1.22,1.18,1.17,1.25a3,3,0,0,1-1.45-1,5.92,5.92,0,0,1-1.08-1.63,5.81,5.81,0,0,1-.37-1.09,6,6,0,0,1-.1-.61,1,1,0,0,1,0-.4.48.48,0,0,1,.23-.28.49.49,0,0,1,.33,0,1.77,1.77,0,0,1,.6.4,4.42,4.42,0,0,1,.44.42,6.45,6.45,0,0,1,.72.9,6.28,6.28,0,0,1,.82,1.77A3.31,3.31,0,0,1,255.59,451Z" style="fill:#263238"></path><path d="M249.32,379.37c-44.15,0-91.37-65.75-116.08-105.89-.59-1-1.05-1.72-1.38-2.24a13.57,13.57,0,0,1-1.41-2.9c-.14-.42-1.32-4.13,1.11-5.36l.45.9c-1.7.85-.66,4-.61,4.14a12.68,12.68,0,0,0,1.3,2.68l1.39,2.25c43.95,71.4,86.49,108.76,119.75,105.18,14.86-1.6,39.38-11.22,71.79-47.95,20.4-23.13,36.28-48.51,41.5-59.09,2.15-4.36.22-5.43.14-5.48l.44-.89a2.61,2.61,0,0,1,1.22,1.53c.46,1.35.16,3.13-.91,5.29-5.24,10.61-21.17,36.1-41.64,59.31-18,20.4-45.18,45.34-72.43,48.27A42.25,42.25,0,0,1,249.32,379.37Z" style="fill:#455a64"></path><path d="M363.41,261.44S355,255.22,352.57,254s-6-1-6.21-1.2S343,250,343,250l-7,10s6.66,7.64,10.4,8.83,5.58.22,5.58.22,2.45,1.46,3.57-.67c0,0,4.15,1.49,4.39-1.54,0,0,1.79,2.95,3.43,3.19s1.59-1.2,1.27-2.39-3-4.54-3-4.54S363.33,262.79,363.41,261.44Z" style="fill:#b56760"></path><path d="M349.19,265.38l16,1.65a2.09,2.09,0,0,0,2.29-1.86h0a2.08,2.08,0,0,0-1.86-2.29l-16-1.65a2.08,2.08,0,0,0-2.29,1.86h0A2.08,2.08,0,0,0,349.19,265.38Z" style="fill:#455a64"></path><path d="M362.82,262.59c-2.68,1-5.81-.39-7.42-2.24a5,5,0,0,1-2.36,1.19,9.94,9.94,0,0,1-2.35.33c-3.27-.23-5.34-1.41-7.8-3.57" style="fill:#b56760"></path><path d="M342.89,258.3c.06-.08,1,.77,2.66,1.79a11,11,0,0,0,3.18,1.25,13.77,13.77,0,0,0,2,.28,9.79,9.79,0,0,0,2.12-.31,7.28,7.28,0,0,0,1.32-.43,2.64,2.64,0,0,0,1-.66l.19-.27.22.23a7.82,7.82,0,0,0,5,2.55,11.06,11.06,0,0,0,2.28-.14,1.67,1.67,0,0,1-.58.25,5.09,5.09,0,0,1-1.72.21,7.75,7.75,0,0,1-5.31-2.53l.4,0a2.91,2.91,0,0,1-1.23.87,8,8,0,0,1-1.41.47,9.63,9.63,0,0,1-2.27.31,13.5,13.5,0,0,1-2.08-.32,10.46,10.46,0,0,1-3.26-1.41,13.46,13.46,0,0,1-1.87-1.46A3,3,0,0,1,342.89,258.3Z" style="fill:#8a4a43"></path><path d="M359.87,266.8a9.9,9.9,0,0,0-.9-2.43,2.73,2.73,0,0,0-1.76-1.51,1.66,1.66,0,0,0-1.92,1,2.7,2.7,0,0,0,0,1.13c.16,1.07.32,2.14.49,3.21" style="fill:#b56760"></path><path d="M355.8,268.23a5.78,5.78,0,0,1-.45-1.68c-.1-.53-.22-1.13-.33-1.85a1.92,1.92,0,0,1,.17-1.22,1.8,1.8,0,0,1,1.07-.82,2.24,2.24,0,0,1,2.32.74,5,5,0,0,1,.93,1.7,3.21,3.21,0,0,1,.36,1.7c-.07,0-.22-.62-.7-1.56a5.52,5.52,0,0,0-.94-1.51,1.78,1.78,0,0,0-1.81-.57,1.33,1.33,0,0,0-.78.57,1.42,1.42,0,0,0-.14.92c.07.63.15,1.25.22,1.85A6.06,6.06,0,0,1,355.8,268.23Z" style="fill:#8a4a43"></path><path d="M352,269.14a6,6,0,0,0-.5-3.69,9,9,0,0,0-.87-1.09,2.84,2.84,0,0,1-.66-1.23,1.27,1.27,0,0,1,.42-1.27,1.63,1.63,0,0,1,1.49,0,5.46,5.46,0,0,1,3.07,2.61,9.19,9.19,0,0,1,.62,4" style="fill:#b56760"></path><path d="M355.59,268.47c-.1,0-.06-1-.35-2.56a4.77,4.77,0,0,0-1.2-2.38,5.56,5.56,0,0,0-2.82-1.59.81.81,0,0,0-1,.73,1.84,1.84,0,0,0,.46,1.35c.3.41.67.77.94,1.2a3.73,3.73,0,0,1,.51,1.29,6.36,6.36,0,0,1,0,1.94,2,2,0,0,1-.15.69s0-.25,0-.7a8.85,8.85,0,0,0-.19-1.85,3.35,3.35,0,0,0-.51-1.13c-.25-.37-.62-.71-1-1.15a2.3,2.3,0,0,1-.59-1.72,1.31,1.31,0,0,1,1.56-1.16,5.69,5.69,0,0,1,3.11,1.77,5,5,0,0,1,1.21,2.64,9.8,9.8,0,0,1,.08,1.93A1.88,1.88,0,0,1,355.59,268.47Z" style="fill:#8a4a43"></path><path d="M348.87,268.81a2.21,2.21,0,0,0-.07-2,5.9,5.9,0,0,0-1.12-.78,1.67,1.67,0,1,1,2.31-2.4s2.28,1.92,2,3.89" style="fill:#b56760"></path><path d="M352,267.54a8.16,8.16,0,0,0-.27-1.21,6.54,6.54,0,0,0-1.87-2.49v0h0a1.51,1.51,0,0,0-1.72-.31,1.45,1.45,0,0,0-.6,1.91c.25.66,1.11.75,1.52,1.39a1.92,1.92,0,0,1,.1,1.52c-.11.33-.2.5-.23.49s0-.2,0-.53a1.88,1.88,0,0,0-.2-1.27,2,2,0,0,0-.74-.52,2,2,0,0,1-.91-.87,2.08,2.08,0,0,1-.15-1.4,1.74,1.74,0,0,1,1-1.19,2,2,0,0,1,2.32.46l0,0a6.14,6.14,0,0,1,1.84,2.78A1.67,1.67,0,0,1,352,267.54Z" style="fill:#8a4a43"></path><path d="M134.86,258.9s8.75-5.67,11.29-6.71,6-.57,6.27-.79l3.59-3.1,6.25,10.51s-7.13,7.69-10.94,8.64-5.58-.14-5.58-.14-2.54,1.31-3.52-.89c0,0-4.24,1.22-4.29-1.82,0,0-2,2.83-3.62,3s-1.52-1.29-1.12-2.46,3.31-4.34,3.31-4.34S134.85,260.25,134.86,258.9Z" style="fill:#b56760"></path><path d="M148.8,263.74l-16.09.62a2.07,2.07,0,0,1-2.16-2h0a2.09,2.09,0,0,1,2-2.17l16.09-.62a2.08,2.08,0,0,1,2.16,2h0A2.09,2.09,0,0,1,148.8,263.74Z" style="fill:#455a64"></path><path d="M135.38,260.08c2.6,1.15,5.81,0,7.54-1.76a5,5,0,0,0,2.28,1.34,9.85,9.85,0,0,0,2.33.48c3.27,0,5.41-1.06,8-3.07" style="fill:#b56760"></path><path d="M155.53,257.07s-.19.25-.63.6a13.25,13.25,0,0,1-2,1.35,10.43,10.43,0,0,1-3.35,1.19,12.68,12.68,0,0,1-2.09.19,9.37,9.37,0,0,1-2.24-.45,7.66,7.66,0,0,1-1.38-.56,3,3,0,0,1-1.18-.95l.4.06a7.8,7.8,0,0,1-5.46,2.2,5.64,5.64,0,0,1-1.71-.32c-.37-.16-.56-.27-.55-.3a10.2,10.2,0,0,0,2.26.3,7.87,7.87,0,0,0,5.11-2.23l.22-.23.18.29a2.64,2.64,0,0,0,1,.72,7.4,7.4,0,0,0,1.29.52,9.89,9.89,0,0,0,2.09.44,13.14,13.14,0,0,0,2-.15,10.89,10.89,0,0,0,3.25-1.05C154.51,257.78,155.48,257,155.53,257.07Z" style="fill:#8a4a43"></path><path d="M138.05,264.48a9.85,9.85,0,0,1,1-2.37,2.69,2.69,0,0,1,1.85-1.39,1.65,1.65,0,0,1,1.85,1.14,2.71,2.71,0,0,1-.08,1.13c-.23,1.06-.46,2.11-.7,3.17" style="fill:#b56760"></path><path d="M142,266.16a5.88,5.88,0,0,1,.19-1.72c.11-.6.23-1.2.34-1.83a1.46,1.46,0,0,0-.08-.93,1.35,1.35,0,0,0-.74-.62,1.79,1.79,0,0,0-1.85.46,5.67,5.67,0,0,0-1,1.45c-.53.91-.72,1.52-.79,1.51a3.15,3.15,0,0,1,.47-1.68,5.16,5.16,0,0,1,1-1.64,2.28,2.28,0,0,1,2.36-.59,1.7,1.7,0,0,1,1.11,2.12c-.15.71-.31,1.31-.45,1.83A5.5,5.5,0,0,1,142,266.16Z" style="fill:#8a4a43"></path><path d="M145.74,267.31a6,6,0,0,1,.73-3.65,10.16,10.16,0,0,1,.94-1,2.85,2.85,0,0,0,.74-1.19,1.27,1.27,0,0,0-.34-1.29,1.65,1.65,0,0,0-1.49-.11,5.44,5.44,0,0,0-3.23,2.42,9.17,9.17,0,0,0-.87,4" style="fill:#b56760"></path><path d="M142.22,266.42s-.06-.25-.05-.71a10,10,0,0,1,.2-1.92,4.94,4.94,0,0,1,1.38-2.55,5.75,5.75,0,0,1,3.21-1.58,1.31,1.31,0,0,1,1.49,1.27,2.34,2.34,0,0,1-.7,1.68c-.37.41-.76.73-1,1.08a3.3,3.3,0,0,0-.58,1.09,8.25,8.25,0,0,0-.31,1.83c0,.45-.05.7-.09.7a1.82,1.82,0,0,1-.11-.7,6.17,6.17,0,0,1,.16-1.93,3.56,3.56,0,0,1,.58-1.26c.3-.4.69-.74,1-1.13a1.91,1.91,0,0,0,.55-1.32.81.81,0,0,0-.95-.79,5.56,5.56,0,0,0-2.91,1.4,4.85,4.85,0,0,0-1.35,2.3C142.34,265.41,142.32,266.43,142.22,266.42Z" style="fill:#8a4a43"></path><path d="M148.9,267.18a2.24,2.24,0,0,1,.2-2,6.21,6.21,0,0,1,1.16-.71,1.67,1.67,0,1,0-2.15-2.54s-2.4,1.77-2.22,3.76" style="fill:#b56760"></path><path d="M145.89,265.72a1.71,1.71,0,0,1,.06-1.31,6.14,6.14,0,0,1,2-2.65l0,0a2,2,0,0,1,2.34-.31,1.76,1.76,0,0,1,.88,1.25,2.06,2.06,0,0,1-.24,1.39,1.94,1.94,0,0,1-1,.8,2.16,2.16,0,0,0-.76.47,1.82,1.82,0,0,0-.28,1.26c0,.34,0,.53,0,.53s-.11-.16-.19-.5a1.87,1.87,0,0,1,.19-1.51c.44-.62,1.31-.65,1.6-1.29a1.43,1.43,0,0,0-.48-1.94,1.51,1.51,0,0,0-1.73.19l0,0h0a6.67,6.67,0,0,0-2,2.37A8.08,8.08,0,0,0,145.89,265.72Z" style="fill:#8a4a43"></path><path d="M215.35,255c-6.77,10.43-15.14,20-10.4,47.46,4.84,28,16.26,60.86,16.26,60.86s-3.25,14.07-.13,26.29a94.21,94.21,0,0,0,7.56,19.1,39.82,39.82,0,0,1,3.69,10.47c.48,2.37.91,4.48.87,4.12a5.56,5.56,0,0,0,10.4,0s.68-16.69,0-25.34,0-22.95,0-22.95,1.5-11.33,1.81-21.76,0-49.18,0-49.18l1-46.29Z" style="fill:#263238"></path><path d="M250.25,431.08s1,6.78,1.54,9.25c.61,2.71,2.62,4.68,4.57,4.74,3.13.08,4.32-2.4,4.88-4.88s1.45-9,1.45-9Z" style="fill:#b56760"></path><path d="M281.13,255.86a170.72,170.72,0,0,1,6.63,31.51c2.33,23.53-14.08,56.65-15.51,71.54s0,26.87-.25,34.88c-.37,14.32-8.1,38.68-8.1,38.68-4.33,5-7.28,5.37-13.65.87,0,0-3.72-17.74-3-30.62s1.61-26.4,1.61-26.4-3.6-15.17-3.54-16.82,0-77.29,0-77.29L246.43,258Z" style="fill:#263238"></path><path d="M209.23,271.46a1.73,1.73,0,0,1-.09.24l-.28.68c-.25.6-.62,1.49-1,2.65a34.49,34.49,0,0,0-2,10.21,72.65,72.65,0,0,0,1.26,15.42c1,5.75,2.51,12,4,18.6,3,13.18,6.08,25,8.92,33.38,1.41,4.2,2.68,7.54,3.58,9.84l1.06,2.65c.11.28.19.51.27.69a1,1,0,0,1,.07.25,1.09,1.09,0,0,1-.12-.23l-.32-.67c-.26-.59-.66-1.47-1.15-2.61-1-2.28-2.29-5.61-3.73-9.8a316.46,316.46,0,0,1-9.09-33.39c-1.46-6.59-3-12.85-4-18.63a70.78,70.78,0,0,1-1.14-15.52A33.16,33.16,0,0,1,207.63,275c.46-1.15.85-2,1.13-2.62l.34-.66C209.17,271.53,209.22,271.45,209.23,271.46Z" style="fill:#fff"></path><path d="M240.79,370.12s-.16.27-.54.69a4.46,4.46,0,0,1-.76.71,6.53,6.53,0,0,1-1.13.77,9.33,9.33,0,0,1-7.76.45,13.6,13.6,0,0,1-3.77-2.22,16.2,16.2,0,0,1-2.42-2.6l-.78-1.11-.5-.9a2.84,2.84,0,0,1-.37-.8s.23.23.54.69l.57.84.83,1.06a18.68,18.68,0,0,0,2.44,2.45,14.12,14.12,0,0,0,3.64,2.1,9.24,9.24,0,0,0,7.4-.29A17.66,17.66,0,0,0,240.79,370.12Z" style="fill:#455a64"></path><path d="M268,373.74a5.72,5.72,0,0,1-1.64,1.52,12.41,12.41,0,0,1-10.41,1.7,5.64,5.64,0,0,1-2-.92c0-.08.82.27,2.13.57a14.18,14.18,0,0,0,5.22.15,13.93,13.93,0,0,0,4.9-1.81C267.29,374.25,267.92,373.67,268,373.74Z" style="fill:#455a64"></path><path d="M245.55,297.06a4.53,4.53,0,0,1,0,.63l0,1.82c0,1.65,0,3.92.07,6.69,0,5.71,0,13.49,0,22.08s-.11,16.37-.14,22.08c-.05,2.77-.09,5-.11,6.69,0,.74,0,1.35-.06,1.82a2.64,2.64,0,0,1-.06.63,3.15,3.15,0,0,1-.05-.63c0-.47,0-1.08,0-1.82,0-1.65,0-3.92-.05-6.69,0-5.71,0-13.49,0-22.08s.09-16.37.13-22.08c0-2.77.07-5,.1-6.69,0-.74,0-1.35.05-1.82A2.64,2.64,0,0,1,245.55,297.06Z" style="fill:#455a64"></path><path d="M263.62,285.43a24.91,24.91,0,0,0-14.37,8.72,8.28,8.28,0,0,1,1.46-2.09,19.64,19.64,0,0,1,4.7-4,20,20,0,0,1,5.68-2.34A7.87,7.87,0,0,1,263.62,285.43Z" style="fill:#455a64"></path><path d="M245.54,297.06a7.54,7.54,0,0,0-.41-1,10.66,10.66,0,0,0-1.93-2.21,52.5,52.5,0,0,0-8-5.7,67.27,67.27,0,0,0-8.76-4.48,20.77,20.77,0,0,0-2.82-.94c-.68-.16-1.07-.16-1.07-.21a2.59,2.59,0,0,1,1.11,0,15.08,15.08,0,0,1,2.91.8,53.89,53.89,0,0,1,8.89,4.38,44.39,44.39,0,0,1,8,5.87,9.26,9.26,0,0,1,1.86,2.39A1.76,1.76,0,0,1,245.54,297.06Z" style="fill:#455a64"></path><path d="M234.69,423.12c-.05,0,0-.83-.19-2.29a24.49,24.49,0,0,0-1.67-6c-1-2.45-2.45-5.23-3.87-8.43a79.63,79.63,0,0,1-3.88-10.73,77.63,77.63,0,0,1-2.92-20.46c0-2.65.11-4.8.23-6.27.07-.69.13-1.25.18-1.7a2.73,2.73,0,0,1,.1-.59,2.33,2.33,0,0,1,0,.6l-.08,1.7c-.05,1.48-.13,3.61-.06,6.25a82,82,0,0,0,6.87,31c1.39,3.2,2.85,6,3.77,8.5a22.67,22.67,0,0,1,1.53,6.09,13.67,13.67,0,0,1,.05,1.71A2.41,2.41,0,0,1,234.69,423.12Z" style="fill:#fff"></path><path d="M270.7,375.8a2.07,2.07,0,0,1,.08.6c0,.45.08,1,.13,1.72s.11,1.67.13,2.74.07,2.28,0,3.62c0,2.69-.14,5.89-.41,9.44s-.75,7.42-1.39,11.47a193.13,193.13,0,0,1-4.49,20.51c-.71,2.59-1.33,4.68-1.79,6.11-.22.67-.39,1.21-.53,1.64a3.35,3.35,0,0,1-.22.56,2.2,2.2,0,0,1,.12-.59c.11-.44.26-1,.44-1.67.39-1.45,1-3.55,1.62-6.14,1.34-5.2,3-12.42,4.34-20.5.63-4,1.1-7.91,1.42-11.43s.48-6.72.52-9.4c0-1.34,0-2.55,0-3.62s0-2,0-2.73,0-1.28,0-1.73A2.79,2.79,0,0,1,270.7,375.8Z" style="fill:#fff"></path><path d="M282.54,272.22a1,1,0,0,1,.12.24c.09.18.2.42.33.71s.32.7.49,1.17.37,1,.58,1.64a39.12,39.12,0,0,1,1.77,10.9,80.93,80.93,0,0,1-1.43,16.32,175.62,175.62,0,0,1-4.58,19.53c-1.95,6.85-4.06,13.3-5.73,19.21a105.2,105.2,0,0,0-3,16.05c-.49,4.63-.63,8.4-.68,11,0,1.27,0,2.28,0,3v.78a.8.8,0,0,1,0,.27.94.94,0,0,1,0-.27c0-.2,0-.46,0-.78,0-.68-.05-1.69-.07-3,0-2.61.08-6.39.52-11a102.46,102.46,0,0,1,2.87-16.14c1.66-5.95,3.75-12.39,5.7-19.23a185.2,185.2,0,0,0,4.61-19.47,83.25,83.25,0,0,0,1.53-16.23A40.8,40.8,0,0,0,283.87,276c-.2-.62-.38-1.17-.53-1.65s-.33-.86-.45-1.18l-.27-.73A1.09,1.09,0,0,1,282.54,272.22Z" style="fill:#fff"></path><path d="M274.12,163S287.07,166,293,180.87c0,0,3,7.08,6.22,15.89s8.53,20.65,8.53,20.65L343,250l-6.51,10.34s-36.39-21.85-41-26.23c-4.86-4.65-16.73-35.55-16.73-35.55L269.17,162Z" style="fill:#b56760"></path><path d="M223.8,162.64s-12.59,2.27-18.49,17.17c0,0-3,7.09-6.22,15.89s-8.53,20.66-8.53,20.66L155.26,249l6.51,10.33s36.39-21.84,41-26.23c4.75-4.54,16.22-34.22,16.72-35.5l0-.09,9.06-35.56Z" style="fill:#b56760"></path><path d="M217.87,201s2.19,26.7,2.5,30.78c.52,6.81-11.24,26.23-14.85,38.4,0,0,20.45,12.84,43.08,12s37.16-12.49,37.16-12.49c-1.73-11.24-9.73-27.78-10.35-38l3.91-24.2a62.92,62.92,0,0,0-1.43-20.66l-7.3-24.58-11.72-2S259,172,246.81,172.05c-10.8.08-10.88-11-10.88-11l-10.44,1.26Z" style="fill:#7E57C2"></path><path d="M218.91,213.74s23.25,12.85,20.38,18-18.94,1.16-18.94,1.16Z" style="fill:#b56760"></path><path d="M278.57,212.09s-23.63,14.29-20.76,19.46,17.6.13,17.6.13Z" style="fill:#b56760"></path><path d="M216.29,185.16a16.34,16.34,0,0,1,.46,2.82c.24,1.91.54,4.24.87,6.82s.55,5.09.65,6.85a13.88,13.88,0,0,1,0,2.86,17.08,17.08,0,0,1-.4-2.83c-.23-1.91-.5-4.24-.8-6.82s-.6-5.08-.73-6.84A13.94,13.94,0,0,1,216.29,185.16Z" style="fill:#8a4a43"></path><path d="M244.8,210s-.24.25-.75.58a13.21,13.21,0,0,1-2.29,1.16,15.6,15.6,0,0,1-16-2.67,13.25,13.25,0,0,1-1.79-1.85,3.09,3.09,0,0,1-.53-.79c.08-.06.88,1,2.55,2.35a16.24,16.24,0,0,0,15.68,2.62C243.64,210.69,244.75,209.92,244.8,210Z" style="fill:#263238"></path><g style="opacity:0.30000000000000004"><path d="M224.6,207.77a11.88,11.88,0,0,0,9.53,8.12c4.41.53,8.87-2.33,11.23-6.09-3.21,1.6-5.9,2.77-9.71,2.81s-8.68-1.85-11.05-4.84"></path></g><path d="M256,209.44c0-.08,1.16.68,3.17,1.4a16.81,16.81,0,0,0,8.18.74,16.62,16.62,0,0,0,7.49-3.36c1.68-1.33,2.48-2.41,2.55-2.35a2.85,2.85,0,0,1-.52.79,13.31,13.31,0,0,1-1.79,1.84,15.64,15.64,0,0,1-16,2.68,12.76,12.76,0,0,1-2.29-1.17C256.28,209.68,256,209.47,256,209.44Z" style="fill:#263238"></path><g style="opacity:0.30000000000000004"><path d="M276.24,207.21a11.9,11.9,0,0,1-9.53,8.12c-4.42.52-8.87-2.33-11.23-6.1,3.21,1.61,5.9,2.78,9.71,2.82s8.67-1.86,11.05-4.84"></path></g><path d="M272.49,254.36a2.7,2.7,0,0,1-.45.26l-1.33.65c-1.17.55-2.86,1.34-5,2.28A179.24,179.24,0,0,1,249,264.18c-3.35,1.1-6.59,2-9.56,2.66a72.26,72.26,0,0,1-8,1.32c-1.15.16-2.19.2-3.11.26s-1.7.09-2.34.09h-1.49a1.93,1.93,0,0,1-.52,0,2,2,0,0,1,.52-.07l1.48-.09c.64,0,1.42-.07,2.33-.18s2-.15,3.08-.33c2.28-.27,5-.77,7.94-1.43s6.17-1.59,9.51-2.68c6.65-2.21,12.52-4.69,16.75-6.48l5-2.13,1.38-.56A1.72,1.72,0,0,1,272.49,254.36Z" style="fill:#263238"></path><path d="M258.87,254.24s-.28.2-.85.47-1.38.62-2.42,1a47.81,47.81,0,0,1-17,3c-1.11,0-2-.05-2.62-.12a3.08,3.08,0,0,1-1-.14c0-.08,1.38,0,3.58-.11a58.34,58.34,0,0,0,16.9-3C257.57,254.68,258.84,254.17,258.87,254.24Z" style="fill:#263238"></path><path d="M272.7,193.56a19.38,19.38,0,0,1-5.09.44,19.8,19.8,0,0,1-5.09-.39,34.09,34.09,0,0,1,5.09-.13A35.29,35.29,0,0,1,272.7,193.56Z" style="fill:#fff"></path><path d="M271.9,192.13a38.13,38.13,0,0,1-8.89,0,38.13,38.13,0,0,1,8.89,0Z" style="fill:#fff"></path></g></svg>