<svg xmlns="http://www.w3.org/2000/svg" viewBox="0 0 500 500"><g id="freepik--background-simple--inject-79"><path d="M468.08,203.45A800.68,800.68,0,0,0,429.26,133c-21.4-34.7-49.42-67.22-86.09-87.73-85.07-47.59-183-29-247.66,25.86S83.67,196.28,71.82,249,22.29,299.73,12.6,376.28,112.74,498.35,197.8,478.7,284,423.87,356.09,421.8,471.31,398,486.38,317.32c5.3-28.36,5.86-59.17-5.71-86.26C476.75,221.88,472.53,212.65,468.08,203.45Z" style="fill:#7E57C2"></path><path d="M468.08,203.45A800.68,800.68,0,0,0,429.26,133c-21.4-34.7-49.42-67.22-86.09-87.73-85.07-47.59-183-29-247.66,25.86S83.67,196.28,71.82,249,22.29,299.73,12.6,376.28,112.74,498.35,197.8,478.7,284,423.87,356.09,421.8,471.31,398,486.38,317.32c5.3-28.36,5.86-59.17-5.71-86.26C476.75,221.88,472.53,212.65,468.08,203.45Z" style="fill:#fff;opacity:0.7000000000000001"></path></g><g id="freepik--Grass--inject-79"><polygon points="478.36 443.05 478.36 435.74 472.27 431.99 465.89 435.92 459.5 431.99 453.12 435.92 446.74 431.99 440.36 435.92 433.98 431.99 427.59 435.92 421.21 431.99 414.82 435.92 408.44 431.99 402.06 435.92 395.67 431.99 389.29 435.92 382.9 431.99 376.52 435.92 370.14 431.99 363.75 435.92 357.37 431.99 350.98 435.92 344.6 431.99 338.21 435.92 331.83 431.99 325.45 435.92 319.06 431.99 312.67 435.92 306.29 431.99 299.9 435.92 293.52 431.99 287.13 435.92 280.75 431.99 274.36 435.92 267.98 431.99 261.59 435.92 255.21 431.99 248.82 435.92 242.44 431.99 236.05 435.92 229.66 431.99 223.28 435.92 216.9 431.99 210.51 435.92 204.13 431.99 197.74 435.92 191.36 431.99 184.98 435.92 178.59 431.99 172.21 435.92 165.82 431.99 159.44 435.92 153.05 431.99 146.66 435.92 140.28 431.99 133.89 435.92 127.51 431.99 121.12 435.92 114.73 431.99 108.34 435.92 101.95 431.99 95.56 435.92 89.17 431.99 82.79 435.92 76.4 431.99 70.02 435.92 63.63 431.99 57.24 435.92 50.85 431.99 44.45 435.92 38.07 431.99 32.73 435.27 32.73 443.05 478.36 443.05" style="fill:#7E57C2"></polygon></g><g id="freepik--Plants--inject-79"><path d="M372.25,398.87c1.38.6,4.76.52,4.76.52s-.73-2.21-.79-2.34c-.74-1.55-3.08-4.1-5-3.85a2.27,2.27,0,0,0-1.83,2.85A4.8,4.8,0,0,0,372.25,398.87Z" style="fill:#828282"></path><path d="M373.42,408.64a15.76,15.76,0,0,0,4.68-.74,39,39,0,0,0,1.83,5.06c.41,1,.86,1.91,1.32,2.86-.28-.41-.53-.76-.57-.81-1.12-1.3-4.05-3.15-5.82-2.39a2.27,2.27,0,0,0-1,3.23,4.76,4.76,0,0,0,3.49,2,15.11,15.11,0,0,0,4.55-.7c.18.36.35.73.54,1.09.87,1.73,1.74,3.46,2.55,5.19.29.6.55,1.21.81,1.82-.25-.36-.45-.66-.49-.7-1.12-1.3-4.06-3.15-5.83-2.4a2.29,2.29,0,0,0-1,3.24,4.78,4.78,0,0,0,3.48,2,14.33,14.33,0,0,0,4.43-.67c.25.63.5,1.26.71,1.89.14.42.3.83.41,1.26l.36,1.28c.19.82.4,1.67.57,2.47.13.56.23,1.1.34,1.64-.27-.61-.84-1.79-.9-1.88-.91-1.45-3.53-3.72-5.39-3.25a2.28,2.28,0,0,0-1.49,3,4.73,4.73,0,0,0,3.15,2.47,15.71,15.71,0,0,0,4.71,0c.18.89.35,1.76.49,2.58.32,1.82.56,3.45.74,4.83h1.26c-.21-1.43-.5-3.13-.88-5-.18-.9-.39-1.87-.61-2.86a25.13,25.13,0,0,0,2.63-1.23,16.72,16.72,0,0,0,3.83,2.47c-.35.84-.69,1.66-1,2.42-.7,1.61-1.36,3-2,4.24h1.37c.5-1.12,1.05-2.39,1.63-3.79.35-.86.71-1.78,1.07-2.73a15.47,15.47,0,0,0,4.69.37,4.78,4.78,0,0,0,3.33-2.23,2.27,2.27,0,0,0-1.26-3.14c-1.82-.62-4.6,1.45-5.62,2.83-.06.09-.61,1-.95,1.65.14-.39.29-.76.43-1.16.29-.8.56-1.6.85-2.45.13-.42.25-.85.38-1.28s.23-.88.34-1.33c.25-1,.45-2.1.63-3.18a15.06,15.06,0,0,0,4.46,1,4.76,4.76,0,0,0,3.62-1.69,2.27,2.27,0,0,0-.76-3.3c-1.71-.88-4.77.74-6,1.95-.07.08-.85,1-1.27,1.58.11-.65.21-1.29.29-1.95.24-1.91.42-3.84.61-5.78l.18-1.77a15.57,15.57,0,0,0,4.61,1.09,4.74,4.74,0,0,0,3.62-1.7,2.27,2.27,0,0,0-.76-3.3c-1.71-.88-4.77.74-6,2-.09.09-1.2,1.48-1.47,1.85.14-1.3.29-2.59.49-3.86a39.09,39.09,0,0,1,1.11-5.08,15.57,15.57,0,0,0,4.63,1.09,4.76,4.76,0,0,0,3.62-1.69,2.27,2.27,0,0,0-.76-3.3c-1.71-.88-4.77.74-6,1.95-.09.1-1.29,1.6-1.49,1.88,0-.09.05-.2.08-.29a29.8,29.8,0,0,1,2-4.8c.44-.86.9-1.65,1.37-2.41a15.4,15.4,0,0,0,4.39,1.54,4.76,4.76,0,0,0,3.79-1.29,2.27,2.27,0,0,0-.4-3.36c-1.6-1.06-4.82.22-6.16,1.28-.08.06-.75.74-1.24,1.23l.65-1c.81-1.21,1.62-2.27,2.34-3.21.42-.52.81-1,1.18-1.42a15.45,15.45,0,0,0,4.58-.66,4.74,4.74,0,0,0,2.77-2.89,2.28,2.28,0,0,0-1.91-2.8c-1.91-.2-4.18,2.42-4.88,4-.06.14-.76,2.37-.72,2.37h0c-.36.41-.74.85-1.15,1.35-.75.91-1.59,2-2.42,3.16a39.33,39.33,0,0,0-2.51,4,29.89,29.89,0,0,0-2.14,4.82s0,0,0,.06c0-.56,0-2.14,0-2.26-.23-1.7-1.65-4.86-3.54-5.21a2.28,2.28,0,0,0-2.63,2.14,4.76,4.76,0,0,0,1.83,3.56,16.15,16.15,0,0,0,4.31,2,39.38,39.38,0,0,0-1.26,5.22c-.19,1-.34,2.07-.48,3.11,0-.48,0-.92,0-1-.22-1.7-1.64-4.86-3.53-5.21a2.29,2.29,0,0,0-2.63,2.14,4.75,4.75,0,0,0,1.83,3.56,15.18,15.18,0,0,0,4.18,1.93l-.15,1.2c-.23,1.93-.45,3.86-.73,5.74-.1.66-.22,1.31-.33,2,0-.43,0-.8,0-.85-.22-1.7-1.64-4.86-3.53-5.21a2.28,2.28,0,0,0-2.63,2.14,4.76,4.76,0,0,0,1.83,3.56,14.66,14.66,0,0,0,4.06,1.89c-.14.66-.28,1.32-.45,2-.12.43-.21.85-.36,1.28s-.27.85-.4,1.26c-.29.8-.59,1.62-.89,2.38-.2.54-.41,1.05-.61,1.56.1-.66.28-2,.28-2.07a8.84,8.84,0,0,0-1.19-4.29,2.19,2.19,0,0,0,0-.51,2.28,2.28,0,0,0-2.78-1.93c-1.86.5-3,3.76-3.12,5.47,0,.1.06,1.21.11,1.9-.09-.4-.18-.8-.28-1.21-.19-.82-.41-1.63-.64-2.51l-.39-1.27c-.12-.43-.3-.87-.45-1.3-.36-1-.78-2-1.23-3a15,15,0,0,0,4.28-1.61,4.75,4.75,0,0,0,2.09-3.41,2.28,2.28,0,0,0-2.46-2.33c-1.91.21-3.57,3.25-3.91,4.93,0,.11-.14,1.34-.19,2-.27-.6-.54-1.2-.84-1.79-.85-1.72-1.77-3.44-2.68-5.15l-.82-1.58a15.68,15.68,0,0,0,4.44-1.64,4.75,4.75,0,0,0,2.09-3.41,2.28,2.28,0,0,0-2.46-2.33c-1.91.21-3.57,3.25-3.91,4.93,0,.13-.19,1.9-.21,2.36-.6-1.16-1.19-2.32-1.72-3.49a40.21,40.21,0,0,1-1.88-4.84c.12,0,3.3-.75,4.47-1.65a4.74,4.74,0,0,0,2.08-3.42,2.27,2.27,0,0,0-2.45-2.32c-1.91.2-3.57,3.25-3.92,4.93,0,.13-.2,2-.2,2.39,0-.1-.07-.19-.1-.29a29.38,29.38,0,0,1-1-5.11c-.11-1-.16-1.88-.19-2.77a14.92,14.92,0,0,0,4.51-1.14,4.73,4.73,0,0,0,2.45-3.16,2.27,2.27,0,0,0-2.18-2.58c-1.92,0-3.91,2.84-4.44,4.47,0,.09-.22,1-.35,1.71,0-.41,0-.83,0-1.21,0-1.46.1-2.79.19-4,.06-.67.12-1.28.19-1.84a15,15,0,0,0,3.46-3.08,4.72,4.72,0,0,0,.71-3.93,2.27,2.27,0,0,0-3.13-1.29c-1.7.88-2.15,4.32-1.87,6,0,.15.67,2.39.7,2.38l0,0c-.07.54-.15,1.13-.22,1.76-.11,1.18-.23,2.51-.27,4a40.14,40.14,0,0,0,.11,4.72,29.3,29.3,0,0,0,.88,5.2.14.14,0,0,0,0,.06c-.31-.48-1.2-1.78-1.28-1.87-1.12-1.3-4.05-3.15-5.82-2.4a2.29,2.29,0,0,0-1,3.24A4.78,4.78,0,0,0,373.42,408.64Z" style="fill:#828282"></path><path d="M406.38,399.61s.61-2.24.63-2.39c.24-1.7-.31-5.12-2-6a2.27,2.27,0,0,0-3.09,1.37,4.77,4.77,0,0,0,.82,3.92A16.18,16.18,0,0,0,406.38,399.61Z" style="fill:#828282"></path><path d="M414.34,415a10.16,10.16,0,0,0,3,.34s-.46-1.4-.5-1.49c-.47-1-1.95-2.6-3.16-2.44a1.44,1.44,0,0,0-1.16,1.81A3,3,0,0,0,414.34,415Z" style="fill:#828282"></path><path d="M415.08,421.18a10.23,10.23,0,0,0,3-.47,27.55,27.55,0,0,0,1.16,3.21c.27.6.55,1.21.84,1.81-.17-.25-.33-.48-.36-.51-.71-.82-2.57-2-3.69-1.52a1.44,1.44,0,0,0-.64,2.05,3,3,0,0,0,2.21,1.25,9.27,9.27,0,0,0,2.89-.45c.11.23.22.46.34.69.55,1.11,1.11,2.2,1.62,3.3.18.38.35.77.51,1.15-.15-.22-.28-.41-.31-.44-.71-.82-2.57-2-3.69-1.52a1.44,1.44,0,0,0-.64,2A3,3,0,0,0,420.5,433a8.79,8.79,0,0,0,2.81-.42c.16.4.32.8.45,1.2s.19.53.26.8.15.55.23.81c.12.53.25,1.06.36,1.57.08.36.15.7.22,1l-.57-1.19c-.58-.92-2.25-2.36-3.43-2.06a1.44,1.44,0,0,0-.94,1.93,3,3,0,0,0,2,1.56,9.39,9.39,0,0,0,3,0c.11.57.22,1.12.31,1.65.2,1.15.35,2.18.47,3.06h.8c-.14-.91-.32-2-.56-3.2-.12-.57-.25-1.19-.39-1.81a17.77,17.77,0,0,0,1.67-.79,10.29,10.29,0,0,0,2.43,1.57c-.22.54-.43,1-.65,1.54-.44,1-.86,1.92-1.23,2.69h.86c.32-.71.67-1.52,1-2.41.22-.54.45-1.13.68-1.73a9.76,9.76,0,0,0,3,.23,3,3,0,0,0,2.11-1.41,1.43,1.43,0,0,0-.8-2c-1.15-.39-2.92.92-3.56,1.8,0,.05-.39.66-.61,1l.28-.74c.18-.5.35-1,.53-1.55.08-.27.16-.54.25-.81s.14-.56.21-.84c.16-.67.29-1.34.4-2a9.38,9.38,0,0,0,2.83.65,3,3,0,0,0,2.3-1.07,1.45,1.45,0,0,0-.49-2.1c-1.08-.55-3,.48-3.8,1.24,0,.05-.54.67-.8,1,.07-.41.13-.82.18-1.24.15-1.21.27-2.44.39-3.67,0-.37.08-.75.11-1.12a10.2,10.2,0,0,0,2.93.69,3,3,0,0,0,2.3-1.08,1.43,1.43,0,0,0-.49-2.09c-1.08-.56-3,.47-3.79,1.24-.06,0-.77.94-.94,1.17.09-.82.18-1.64.31-2.45a25.15,25.15,0,0,1,.7-3.22,10,10,0,0,0,2.94.69,3,3,0,0,0,2.3-1.07,1.45,1.45,0,0,0-.48-2.1c-1.09-.56-3,.47-3.8,1.24-.06.06-.82,1-.95,1.2,0-.06,0-.13,0-.19a18.74,18.74,0,0,1,1.28-3.05c.28-.54.57-1,.87-1.53a9.73,9.73,0,0,0,2.79,1,3,3,0,0,0,2.4-.82,1.45,1.45,0,0,0-.25-2.13c-1-.67-3.06.14-3.92.82l-.78.78.41-.65c.51-.77,1-1.44,1.49-2,.26-.34.51-.63.74-.91a9.83,9.83,0,0,0,2.91-.41,3,3,0,0,0,1.76-1.84,1.44,1.44,0,0,0-1.21-1.77c-1.21-.13-2.65,1.53-3.1,2.52,0,.09-.48,1.5-.46,1.5h0c-.23.26-.47.54-.73.86-.48.58-1,1.24-1.54,2a26.6,26.6,0,0,0-1.59,2.54,19.92,19.92,0,0,0-1.36,3.06.08.08,0,0,1,0,0c0-.36,0-1.36,0-1.44-.14-1.08-1-3.08-2.24-3.31a1.45,1.45,0,0,0-1.67,1.36,3,3,0,0,0,1.16,2.26,10.31,10.31,0,0,0,2.74,1.25,25,25,0,0,0-.8,3.31c-.12.66-.22,1.32-.31,2,0-.31,0-.58,0-.62-.14-1.08-1.05-3.09-2.25-3.31a1.44,1.44,0,0,0-1.66,1.36,3,3,0,0,0,1.16,2.26,9.25,9.25,0,0,0,2.65,1.22c0,.26-.07.51-.1.77-.14,1.22-.28,2.44-.46,3.64-.06.42-.14.83-.21,1.24,0-.27,0-.5,0-.54-.14-1.08-1-3.08-2.24-3.3a1.45,1.45,0,0,0-1.67,1.35,3,3,0,0,0,1.16,2.26,9,9,0,0,0,2.58,1.2c-.09.42-.18.84-.28,1.25s-.14.54-.23.81-.17.54-.26.8c-.18.51-.37,1-.56,1.51s-.26.66-.39,1c.06-.42.18-1.24.18-1.31a5.69,5.69,0,0,0-.75-2.73c0-.11,0-.21,0-.32a1.45,1.45,0,0,0-1.77-1.22c-1.18.31-1.93,2.38-2,3.47,0,.06,0,.76.07,1.2-.06-.25-.11-.5-.18-.76-.12-.53-.26-1-.41-1.6l-.24-.81c-.08-.27-.19-.54-.29-.82-.23-.64-.5-1.27-.78-1.91a9.67,9.67,0,0,0,2.72-1,3,3,0,0,0,1.32-2.17A1.44,1.44,0,0,0,426,427c-1.22.13-2.27,2.06-2.49,3.13,0,.07-.09.85-.12,1.28-.17-.38-.34-.76-.53-1.13-.54-1.1-1.12-2.18-1.7-3.27l-.52-1a10.19,10.19,0,0,0,2.82-1.05,3,3,0,0,0,1.32-2.16,1.45,1.45,0,0,0-1.56-1.48c-1.21.13-2.26,2.06-2.48,3.13,0,.08-.12,1.21-.13,1.5-.39-.74-.76-1.48-1.1-2.22a25.86,25.86,0,0,1-1.19-3.07,10.39,10.39,0,0,0,2.84-1.05,3,3,0,0,0,1.32-2.16,1.44,1.44,0,0,0-1.56-1.48c-1.21.13-2.26,2.06-2.48,3.13,0,.08-.13,1.3-.13,1.52l-.07-.19a18.58,18.58,0,0,1-.61-3.24c-.07-.61-.1-1.19-.12-1.76a9.76,9.76,0,0,0,2.86-.72,3,3,0,0,0,1.56-2,1.45,1.45,0,0,0-1.39-1.64c-1.22,0-2.48,1.8-2.81,2.84,0,.06-.15.65-.23,1.08,0-.25,0-.52,0-.76,0-.93.06-1.77.12-2.52,0-.42.08-.81.12-1.16a10.09,10.09,0,0,0,2.2-1.95,3,3,0,0,0,.45-2.5,1.45,1.45,0,0,0-2-.82c-1.08.56-1.37,2.74-1.19,3.82,0,.09.43,1.51.45,1.5h0c-.05.34-.1.71-.14,1.11-.07.75-.15,1.6-.17,2.52a23.65,23.65,0,0,0,.07,3,19.1,19.1,0,0,0,.55,3.3,0,0,0,0,1,0,0c-.19-.3-.75-1.12-.8-1.18-.72-.82-2.58-2-3.7-1.52a1.44,1.44,0,0,0-.64,2.05A3,3,0,0,0,415.08,421.18Z" style="fill:#828282"></path><path d="M436,415.44s.39-1.42.4-1.51c.15-1.08-.19-3.25-1.29-3.78a1.43,1.43,0,0,0-2,.87,3,3,0,0,0,.52,2.48A10.37,10.37,0,0,0,436,415.44Z" style="fill:#828282"></path><path d="M73.45,413.47a10.35,10.35,0,0,0,3,.33s-.46-1.4-.5-1.49c-.47-1-2-2.6-3.17-2.44a1.45,1.45,0,0,0-1.16,1.81A3,3,0,0,0,73.45,413.47Z" style="fill:#828282"></path><path d="M74.19,419.67a10,10,0,0,0,3-.47,25.83,25.83,0,0,0,1.16,3.21c.26.61.54,1.21.83,1.81l-.35-.51c-.72-.82-2.58-2-3.7-1.52a1.44,1.44,0,0,0-.64,2.05,3,3,0,0,0,2.21,1.25,9.6,9.6,0,0,0,2.89-.44c.12.23.23.46.34.69.56,1.1,1.11,2.2,1.63,3.29.18.38.34.77.51,1.15l-.31-.44c-.72-.82-2.58-2-3.7-1.52a1.44,1.44,0,0,0-.64,2,3,3,0,0,0,2.21,1.25,9.39,9.39,0,0,0,2.81-.42c.16.4.32.8.45,1.19s.19.53.26.81.15.54.23.81c.12.52.26,1.06.37,1.57l.21,1c-.17-.38-.53-1.13-.57-1.19-.58-.92-2.24-2.36-3.42-2.06a1.44,1.44,0,0,0-1,1.93,3,3,0,0,0,2,1.57,10,10,0,0,0,3,0c.11.56.22,1.12.31,1.64.2,1.15.36,2.19.47,3.06h.8c-.14-.9-.32-2-.56-3.19-.11-.58-.24-1.19-.39-1.82a14.83,14.83,0,0,0,1.67-.78,11,11,0,0,0,2.43,1.56c-.21.54-.43,1.06-.64,1.54-.45,1-.87,1.92-1.24,2.69h.87c.32-.71.67-1.51,1-2.41.23-.54.45-1.12.68-1.72a10.49,10.49,0,0,0,3,.23,3,3,0,0,0,2.11-1.42,1.44,1.44,0,0,0-.79-2c-1.16-.39-2.92.92-3.57,1.8,0,.05-.39.66-.61,1.05.1-.25.19-.49.28-.74l.54-1.56.24-.81c.09-.26.14-.56.22-.84.15-.66.28-1.34.39-2a9.77,9.77,0,0,0,2.83.65,3,3,0,0,0,2.3-1.08,1.44,1.44,0,0,0-.48-2.09c-1.09-.56-3,.47-3.8,1.24,0,.05-.54.66-.81,1,.07-.41.14-.82.19-1.24.15-1.21.26-2.44.38-3.66l.12-1.13a10,10,0,0,0,2.92.69,3,3,0,0,0,2.3-1.08,1.44,1.44,0,0,0-.48-2.09c-1.09-.56-3,.47-3.8,1.24-.06.06-.77.94-.93,1.17.08-.82.18-1.64.3-2.45A25.16,25.16,0,0,1,93,419a10.15,10.15,0,0,0,2.94.7,3,3,0,0,0,2.3-1.08,1.44,1.44,0,0,0-.49-2.09c-1.08-.56-3,.47-3.8,1.24-.06.06-.82,1-.94,1.19,0-.06,0-.13.05-.19a18.58,18.58,0,0,1,1.27-3.05c.28-.54.57-1,.87-1.52a9.75,9.75,0,0,0,2.79,1,3,3,0,0,0,2.4-.81,1.45,1.45,0,0,0-.25-2.14c-1-.67-3.06.14-3.91.82-.05,0-.48.46-.79.78l.42-.65c.51-.77,1-1.44,1.48-2,.27-.33.51-.63.75-.91a9.49,9.49,0,0,0,2.9-.41A3,3,0,0,0,102.7,408a1.44,1.44,0,0,0-1.21-1.78c-1.21-.13-2.65,1.53-3.09,2.53,0,.08-.49,1.5-.46,1.49h0l-.73.86c-.47.58-1,1.25-1.53,2a24.56,24.56,0,0,0-1.59,2.53,18.16,18.16,0,0,0-1.36,3.06.06.06,0,0,0,0,0c0-.36,0-1.36,0-1.44-.14-1.08-1-3.08-2.25-3.3a1.44,1.44,0,0,0-1.66,1.36A3,3,0,0,0,90,417.57a9.54,9.54,0,0,0,2.73,1.25,25.13,25.13,0,0,0-.8,3.32c-.12.65-.21,1.31-.3,2,0-.31,0-.59,0-.63-.14-1.08-1-3.08-2.24-3.31a1.45,1.45,0,0,0-1.67,1.36,3,3,0,0,0,1.16,2.26A9.37,9.37,0,0,0,91.48,425l-.09.77c-.15,1.22-.29,2.45-.47,3.64-.06.42-.13.83-.21,1.25,0-.28,0-.51,0-.54-.14-1.08-1-3.09-2.25-3.31a1.44,1.44,0,0,0-1.66,1.36A3,3,0,0,0,88,430.45a9.15,9.15,0,0,0,2.57,1.19c-.09.42-.17.85-.28,1.25s-.13.54-.23.81-.17.54-.26.81c-.18.5-.37,1-.56,1.51s-.26.66-.39,1c.07-.42.18-1.24.18-1.31a5.61,5.61,0,0,0-.75-2.73,1.62,1.62,0,0,0,0-.31,1.44,1.44,0,0,0-1.77-1.23c-1.17.31-1.92,2.38-2,3.47,0,.07,0,.77.07,1.21,0-.26-.11-.51-.17-.77-.13-.52-.27-1-.41-1.6-.08-.26-.16-.53-.25-.8s-.19-.55-.28-.83c-.23-.63-.5-1.27-.79-1.9a9.31,9.31,0,0,0,2.72-1A3,3,0,0,0,86.68,427a1.45,1.45,0,0,0-1.56-1.48c-1.21.14-2.27,2.07-2.49,3.13,0,.07-.08.85-.11,1.29-.18-.38-.35-.76-.54-1.14-.54-1.09-1.12-2.18-1.7-3.27l-.52-1a10.43,10.43,0,0,0,2.82-1,3,3,0,0,0,1.32-2.17,1.44,1.44,0,0,0-1.56-1.48c-1.21.13-2.26,2.07-2.48,3.13,0,.08-.12,1.21-.13,1.5-.38-.74-.76-1.47-1.1-2.21a27.1,27.1,0,0,1-1.19-3.08,10.17,10.17,0,0,0,2.84-1A3,3,0,0,0,81.6,416,1.44,1.44,0,0,0,80,414.5c-1.21.13-2.26,2.06-2.48,3.13,0,.09-.13,1.3-.13,1.52a1.27,1.27,0,0,1-.06-.18,17.84,17.84,0,0,1-.62-3.25c-.07-.61-.1-1.19-.12-1.76a9.51,9.51,0,0,0,2.87-.72,3,3,0,0,0,1.55-2,1.44,1.44,0,0,0-1.39-1.64c-1.22,0-2.47,1.8-2.81,2.83,0,.06-.14.65-.22,1.09,0-.26,0-.52,0-.77,0-.92.06-1.77.12-2.51,0-.43.08-.81.12-1.17a9.62,9.62,0,0,0,2.2-1.95,3,3,0,0,0,.45-2.5,1.44,1.44,0,0,0-2-.82c-1.09.56-1.37,2.75-1.19,3.82,0,.09.42,1.52.44,1.5h0c-.05.34-.09.71-.14,1.12-.07.75-.15,1.59-.17,2.52a27.93,27.93,0,0,0,.07,3,19.15,19.15,0,0,0,.56,3.3.08.08,0,0,0,0,0c-.19-.3-.76-1.13-.81-1.19-.71-.82-2.57-2-3.7-1.52a1.45,1.45,0,0,0-.64,2.05A3,3,0,0,0,74.19,419.67Z" style="fill:#828282"></path><path d="M95.1,413.94s.39-1.43.41-1.52c.15-1.08-.2-3.25-1.3-3.78a1.44,1.44,0,0,0-2,.87,3,3,0,0,0,.52,2.48A10.21,10.21,0,0,0,95.1,413.94Z" style="fill:#828282"></path></g><g id="freepik--Clouds--inject-79"><path d="M111.69,132.12c-1.94-2-5.3-3.86-11.13-4-13.1-.32-9.58,8.95-13.1,11.18s-4.48-1.28-8,1-1.92,6.71-4.79,7.35S68,144.74,64.45,147s-3.52,4.16-5.12,4.16-4.79-1.28-6.71,0S48.47,154,48.47,154H82.78" style="fill:none;stroke:#263238;stroke-linecap:round;stroke-linejoin:round"></path><path d="M115.3,137.84l-1-.45a8.61,8.61,0,0,0-1.18-3.38" style="fill:none;stroke:#263238;stroke-linecap:round;stroke-linejoin:round"></path><path d="M87.18,154h42.15s1-2.87-2.56-4.79-5.11-.32-6.39-1.92c-1.14-1.42,2.54-4.87-3.41-8.54" style="fill:none;stroke:#263238;stroke-linecap:round;stroke-linejoin:round"></path><path d="M401.19,325.29c-1.94-2-5.3-3.85-11.13-4-13.1-.32-9.59,8.95-13.1,11.19s-4.48-1.28-8,1-1.92,6.71-4.8,7.35-6.71-2.88-10.22-.64-3.52,4.16-5.12,4.16-4.79-1.28-6.71,0-4.15,2.87-4.15,2.87h34.31" style="fill:none;stroke:#263238;stroke-linecap:round;stroke-linejoin:round"></path><path d="M404.8,331c-.31-.16-.64-.31-1-.46a8.6,8.6,0,0,0-1.18-3.37" style="fill:none;stroke:#263238;stroke-linecap:round;stroke-linejoin:round"></path><path d="M376.68,347.18h42.15s1-2.87-2.56-4.79-5.11-.32-6.39-1.92c-1.14-1.42,2.54-4.87-3.42-8.55" style="fill:none;stroke:#263238;stroke-linecap:round;stroke-linejoin:round"></path><path d="M178.5,73.83h44.88s1.52-4.59-4.08-7.65-8.16-.51-10.2-3.06,5.61-9.17-9.68-15.8c0,0-1-14.27-21.92-14.78-9-.22-13.1,2.41-15.27,5.76" style="fill:none;stroke:#263238;stroke-linecap:round;stroke-linejoin:round"></path><line x1="164.81" y1="73.83" x2="172.28" y2="73.83" style="fill:none;stroke:#263238;stroke-linecap:round;stroke-linejoin:round"></line><path d="M159.51,45.34c-.64,2.17-1.33,4-2.9,5-5.61,3.57-7.14-2-12.74,1.53s-3.06,10.7-7.65,11.72-10.7-4.58-16.31-1-5.61,6.63-8.15,6.63-7.65-2-10.71,0-6.62,4.59-6.62,4.59h57.31" style="fill:none;stroke:#263238;stroke-linecap:round;stroke-linejoin:round"></path></g><g id="freepik--Trees--inject-79"><path d="M34.74,309.29s33.65,3.33,50.7,24.19c0,0,18-24.16,50.37-23.67a65.39,65.39,0,1,0-101.08-.46Z" style="fill:#7E57C2"></path><path d="M34.74,309.29s33.65,3.33,50.7,24.19c0,0,18-24.16,50.37-23.67a65.39,65.39,0,1,0-101.08-.46Z" style="fill:#7E57C2"></path><path d="M34.74,309.29s33.65,3.33,50.7,24.19c0,0,18-24.16,50.37-23.67a65.39,65.39,0,1,0-101.08-.46Z" style="fill:#fff;opacity:0.30000000000000004"></path><polygon points="87.47 443.51 84.33 207.3 83.54 443.51 87.47 443.51" style="fill:#828282"></polygon><path d="M86,327.12s11.36-20.44,31.8-26.69c0,0-21.58,5.11-32.37,22.72Z" style="fill:#828282"></path><path d="M84.79,269.75s12.6-21,33-27.24c0,0-22.25,6.4-33,24Z" style="fill:#828282"></path><path d="M85.23,299.62s12.16-21.9,32.6-28.15c0,0-22.1,6.13-32.89,23.73Z" style="fill:#828282"></path><path d="M84.35,284s-11-20.44-30.69-26.69c0,0,20.82,5.12,31.23,22.72Z" style="fill:#828282"></path><path d="M84.35,312.36s-11-20.45-30.69-26.69c0,0,20.82,5.11,31.23,22.71Z" style="fill:#828282"></path><path d="M362.67,309.29s33.64,3.33,50.69,24.19c0,0,18-24.16,50.37-23.67a65.39,65.39,0,1,0-101.07-.46Z" style="fill:#7E57C2"></path><path d="M362.67,309.29s33.64,3.33,50.69,24.19c0,0,18-24.16,50.37-23.67a65.39,65.39,0,1,0-101.07-.46Z" style="fill:#fff;opacity:0.30000000000000004"></path><polygon points="415.39 443.51 412.25 207.3 411.46 443.51 415.39 443.51" style="fill:#828282"></polygon><path d="M414,327.12s11.36-20.44,31.8-26.69c0,0-21.58,5.11-32.37,22.72Z" style="fill:#828282"></path><path d="M412.71,269.75s12.6-21,33-27.24c0,0-22.25,6.4-33,24Z" style="fill:#828282"></path><path d="M413.16,299.62s12.15-21.9,32.59-28.15c0,0-22.1,6.13-32.89,23.73Z" style="fill:#828282"></path><path d="M412.27,284s-11-20.44-30.69-26.69c0,0,20.83,5.12,31.24,22.72Z" style="fill:#828282"></path><path d="M412.27,312.36s-11-20.45-30.69-26.69c0,0,20.83,5.11,31.24,22.71Z" style="fill:#828282"></path><path d="M246,192.23s57.14,5.65,86.11,41.08c0,0,30.6-41,85.56-40.2a111.08,111.08,0,1,0-171.69-.79Z" style="fill:#7E57C2"></path><path d="M246,192.23s57.14,5.65,86.11,41.08c0,0,30.6-41,85.56-40.2a111.08,111.08,0,1,0-171.69-.79Z" style="fill:#fff;opacity:0.30000000000000004"></path><polygon points="335.82 443.51 330.17 18.98 328.75 443.51 335.82 443.51" style="fill:#828282"></polygon><path d="M333.06,222.51s19.29-34.72,54-45.33c0,0-36.66,8.68-55,38.58Z" style="fill:#828282"></path><path d="M331,125.06s21.39-35.66,56.12-46.27c0,0-37.79,10.87-56.12,40.78Z" style="fill:#828282"></path><path d="M331.71,175.79s20.64-37.2,55.37-47.81c0,0-37.54,10.41-55.87,40.31Z" style="fill:#828282"></path><path d="M330.2,149.2s-18.61-34.72-52.12-45.33c0,0,35.37,8.68,53.05,38.58Z" style="fill:#828282"></path><path d="M330.2,197.43s-18.61-34.72-52.12-45.33c0,0,35.37,8.68,53.05,38.58Z" style="fill:#828282"></path></g><g id="freepik--Floor--inject-79"><line x1="468.08" y1="443.21" x2="478.91" y2="443.21" style="fill:none;stroke:#263238;stroke-linecap:round;stroke-linejoin:round"></line><line x1="33.16" y1="443.21" x2="458.14" y2="443.21" style="fill:none;stroke:#263238;stroke-linecap:round;stroke-linejoin:round"></line></g><g id="freepik--Character--inject-79"><ellipse cx="246.98" cy="478.63" rx="25.73" ry="2.31" style="fill:#263238"></ellipse><path d="M151.81,287.83s-5.51,2.48-4.13,11.29,42.68,66.09,53.14,104.64,2.21,70.49,46,66.91S296.37,417.8,306,379s33.59-63.61,35-81.23-9.92-14.6-9.92-14.6" style="fill:none;stroke:#263238;stroke-miterlimit:10"></path><path d="M211.41,339.64s3.93,25.93,4.13,27.31-3.93,16.3-1.18,24.55,6.88,21,8.65,24.76,2,4.12,2.16,10-1.38,17.87.78,21.8a10.28,10.28,0,0,0,10.81,5.3c4.32-.78,6.48-3.92,5.89-8.84s-2.55-11.39-3.73-16.89-2.36-10-3.15-13.36-.59-1.18-.78-14-1-18.85-1.57-25.14-.4-7.27-.59-9,7.07-26.32,7.07-26.32l-28.68-2.16Z" style="fill:#fff;stroke:#263238;stroke-miterlimit:10"></path><path d="M238.92,427.65c-1.18-5.5-2.36-10-3.15-13.36s-.59-1.18-.78-14-1-18.85-1.57-25.14c0,0-2.71,28.69-8.27,50.5,0,.19,0,.37,0,.58.19,5.89-1.38,17.87.78,21.8a10.28,10.28,0,0,0,10.81,5.3c4.32-.78,6.48-3.92,5.89-8.84S240.1,433.15,238.92,427.65Z" style="fill:#263238;stroke:#263238;stroke-miterlimit:10"></path><path d="M242.65,444.54c-.59-4.91-2.55-11.39-3.73-16.89s-2.36-10-3.15-13.36c0,0,1,3.73-3.53,6.48a6.63,6.63,0,0,1-7.51,0,35.66,35.66,0,0,1,.44,5.53c.19,5.89-1.38,17.87.78,21.8a10.28,10.28,0,0,0,10.81,5.3C241.08,452.6,243.24,449.46,242.65,444.54Z" style="fill:#fff;stroke:#263238;stroke-miterlimit:10"></path><path d="M236.76,453.38c4.32-.78,6.48-3.92,5.89-8.84-.05-.39-.12-.82-.18-1.23-1.11,5.48-4.17,8.76-9.45,7.91-4.2-.67-6.91-6-8.18-9.14a14.92,14.92,0,0,0,1.11,6A10.28,10.28,0,0,0,236.76,453.38Z" style="fill:#fff;stroke:#263238;stroke-miterlimit:10"></path><path d="M254.24,371.66s.39,6.88,1.77,9.63,4.32,3.14,6.09,6.68,2.35,4.52.19,12c-1.14,4-3.36,10.6.19,14,5.48,5.2,10.12-2,12-6.69,1.8-4.38,1.88-8.91,1.35-13.55-.79-6.88-.79-7.47-.79-8.65s4.72-7.86,2.16-14.53-7.07-6.09-7.07-6.09S256.4,361.84,254.24,371.66Z" style="fill:#263238;stroke:#263238;stroke-miterlimit:10"></path><path d="M248.74,341.8s1.37,25.54,4.12,30.65,11.79,7.66,15.13,5.5,5.89-13.36,6.88-19.84S277,342.79,277,342.79Z" style="fill:#fff;stroke:#263238;stroke-miterlimit:10"></path><path d="M213,270.5s-5.9,24.55-6.29,34.37-2.36,25.93-3.14,30.06a35,35,0,0,0-.59,7.66s3.73-1.37,17.87.59,15.52,2.36,18.08,2.36h2.55l2.55-2.36-.39,2.36s-4.12,2,9.63.39,18.07-.59,22.39-.79,7.66-.59,7.66-.59,1.58-13-2-30.44-3.34-27.51-6.88-34l-3.53-6.48s-27.31,1.37-37.33,1.18a64.52,64.52,0,0,1-19.25-3.74" style="fill:#263238;stroke:#263238;stroke-miterlimit:10"></path><path d="M164.74,269.31l-4.42,3.82s-6.64,2.41-7.84,4.42-2.21,6.23-3.22,6.64-3.62.6-2.61,1.81,3,.8,3,.8.81,4,1.41,4.82,2.81-.8,6.84-2.41,4.62-1,5.42-3.82,2.21-7.84,2.21-7.84l2.82-2.61Z" style="fill:#fff;stroke:#263238;stroke-miterlimit:10"></path><path d="M164.74,269.31l-3.18,2.75,3.95,5.6,0-.11,2.82-2.61Z" style="fill:#7E57C2;stroke:#263238;stroke-miterlimit:10"></path><path d="M149.66,286.8l9-4.52a1.21,1.21,0,0,1,1.6.48,15.06,15.06,0,0,1,1.63,3.84" style="fill:none;stroke:#263238;stroke-miterlimit:10"></path><path d="M160.29,281.88l1.48-.74a1.8,1.8,0,0,1,2.48,1l.13.34a1.8,1.8,0,0,1-1.17,2.36l-1.07.31Z" style="fill:#263238;stroke:#263238;stroke-miterlimit:10"></path><path d="M158.7,282.28s1.16-.62,1.16-2.89" style="fill:none;stroke:#263238;stroke-miterlimit:10"></path><path d="M318.78,267.66l5,3s6.94,1.27,8.47,3.06,3.22,5.77,4.28,6,3.66,0,2.87,1.35-2.83,1.3-2.83,1.3-.13,4.09-.59,5-2.91-.33-7.14-1.24-4.73-.22-6-2.86-3.49-7.37-3.49-7.37l-3.21-2.1Z" style="fill:#fff;stroke:#263238;stroke-miterlimit:10"></path><path d="M318.78,267.66l3.6,2.18-3,6.19-.05-.11-3.21-2.1Z" style="fill:#7E57C2;stroke:#263238;stroke-miterlimit:10"></path><path d="M336.57,282.4l-9.67-3a1.22,1.22,0,0,0-1.5.75,15,15,0,0,0-1,4.05" style="fill:none;stroke:#263238;stroke-miterlimit:10"></path><path d="M325.26,279.32l-1.57-.48a1.79,1.79,0,0,0-2.29,1.37l-.07.36a1.8,1.8,0,0,0,1.55,2.13l1.11.13Z" style="fill:#263238;stroke:#263238;stroke-miterlimit:10"></path><path d="M326.9,279.44s-1.24-.41-1.62-2.66" style="fill:none;stroke:#263238;stroke-miterlimit:10"></path><path d="M223,192.74s-19.64,5.4-20.45,9.83-6.23,18.89-6.23,19.9-6.63,23.92-6.63,23.92-2.61,2-2.82,2.82c0,0-9.85,5.63-13.67,9.85s-10.25,7.64-9.85,9,2.42,9.65,8.85,9.45,26.33-10.05,30.35-14.07S212.39,247,212.39,247s-4,13.06-3,16.08,2,8.44,5.23,9.85,13.47,5,32,4.62,23.52-1,26.14-4.82a28.32,28.32,0,0,0,4.62-12.87,57.55,57.55,0,0,0,.6-8.44c0-1.81,4.43,8,15.28,14.67s17.49,13.07,19.5,10.86,9.05-5.43,7.84-11.26-5.63-6.83-11.06-12.26a39.77,39.77,0,0,1-7.84-11.06s.61-2.81-.6-4.22l-1.2-1.41a17.08,17.08,0,0,0-1.21-16.08,145.57,145.57,0,0,0-11.46-15.88c-4.42-5.43-3.42-6.84-7.84-9.45s-2.61-2.41-12.67-4.42-12.7-.37-25.85-.49S223,192.74,223,192.74Z" style="fill:#7E57C2;stroke:#263238;stroke-miterlimit:10"></path><path d="M277.92,251.42s1.81-12.06,3-22.12-1.61-18.09-3.42-21.1" style="fill:none;stroke:#263238;stroke-miterlimit:10"></path><path d="M212,212.62s-2.21,7.24-.4,13.27,1.81,9,1.61,12.26-.8,8.85-.8,8.85" style="fill:none;stroke:#263238;stroke-miterlimit:10"></path><path d="M214.4,258.25c.6-.4,12.06-16.08,12.06-16.08l2,1.41L215.8,260.26" style="fill:none;stroke:#263238;stroke-miterlimit:10"></path><polyline points="259.02 244.78 270.28 264.28 272.5 262.68 261.44 243.98" style="fill:none;stroke:#263238;stroke-miterlimit:10"></polyline><path d="M229.07,276.15s-.8-1.41-7.24-7.85" style="fill:none;stroke:#263238;stroke-miterlimit:10"></path><path d="M246.56,277.55s7.24-3.21,8.85-7" style="fill:none;stroke:#263238;stroke-miterlimit:10"></path><path d="M253.2,276.75a5.82,5.82,0,0,0,4-2.62" style="fill:none;stroke:#263238;stroke-miterlimit:10"></path><path d="M231.42,174s-6.81,1.63-7.21,3.4a30,30,0,0,0-.41,3.67c-.14.55-3.41,2.45-4.49,4.36s.68,2.31.68,2.86-2.45,2.31-1.77,3.26a5.1,5.1,0,0,0,4.76,2.72c3.27.14,17.42-.68,18-.54s9.79-2,16.6-1.77,12.93,2.45,13.34.68-3-6.26-3-6.26,2.45-.54.68-3.67-3.81-3.54-3.81-4.22,2.18-1.64-3-3.41A46,46,0,0,0,249,173c-2.73-.14-14.57-.41-14.57-.41Z" style="fill:#7E57C2;stroke:#263238;stroke-miterlimit:10"></path><path d="M264.76,178.53a67.17,67.17,0,0,0-10.84,6.65c-4.18,3.42-5.89,6.08-9.12,6.85" style="fill:none;stroke:#263238;stroke-miterlimit:10"></path><path d="M267.89,186.42s-2.94-.86-8.83,1.42-4.76,3-9.51,3.61" style="fill:none;stroke:#263238;stroke-miterlimit:10"></path><path d="M223.8,181.11s2.18,1,7.12,6.35,7.8,4.57,7.8,4.57" style="fill:none;stroke:#263238;stroke-miterlimit:10"></path><path d="M220,188.33c1,.27,2.95,3.51,9.41,4.27" style="fill:none;stroke:#263238;stroke-miterlimit:10"></path><path d="M232.92,174.23a15.72,15.72,0,0,0,1.49,8.71c2.18,3.94,4.36,7.89,6.4,7.48s9.39-8.16,10.89-10.2a23.66,23.66,0,0,0,2.58-6.13S241.76,180.22,232.92,174.23Z" style="fill:#fff;stroke:#263238;stroke-miterlimit:10"></path><path d="M254.28,174.09s-12.52,6.13-21.36.14a15.94,15.94,0,0,0-.06,3,29.32,29.32,0,0,0,11.61,10.56,71.66,71.66,0,0,0,7.23-7.59A23.66,23.66,0,0,0,254.28,174.09Z" style="fill:#263238;stroke:#263238;stroke-miterlimit:10"></path><path d="M229,158.22s-3-2.67-3.8-.31a6.59,6.59,0,0,0,1.42,6.83c1.89,2.08,3.08,2.4,3.08,2.4Z" style="fill:#fff;stroke:#263238;stroke-miterlimit:10"></path><path d="M258.09,161.16s3.41-2.18,3.82.27a6.64,6.64,0,0,1-2.45,6.54c-2.18,1.77-3.41,1.9-3.41,1.9Z" style="fill:#fff;stroke:#263238;stroke-miterlimit:10"></path><path d="M241.9,133.67s-8.85-2-10.62,5-3.4,18-3.26,23,2.72,12.38,4.08,13.88,5.31,5.44,8.17,5.58,9.66-1.63,12.79-4.77,2.58-6.12,4.22-11.16,4.08-12.24,2.58-19.46-.4-5.44-6.12-9.93S240.27,128.5,241.9,133.67Z" style="fill:#fff;stroke:#263238;stroke-miterlimit:10"></path><path d="M259.86,145.78c-1.49-7.21-.4-5.44-6.12-9.93s-13.47-7.35-11.84-2.18c0,0-8.85-2-10.62,5a135.69,135.69,0,0,0-2.75,15.3l.3-.06s1.77-.27,2-3.81.41-8.44,1.91-8.58,4.22,3.68,8.71,2.18,6.94-4.08,10.75-2.45,5.17,4.77,4.22,6.13-1.77,3.4-.82,5a16.85,16.85,0,0,1,2.05,4.22c.2.91.33,4.4.38,6.11C259.57,158,261.13,151.89,259.86,145.78Z" style="fill:#263238;stroke:#263238;stroke-miterlimit:10"></path><polyline points="239.99 154.9 240.67 157.08 239.72 159.53" style="fill:none;stroke:#263238;stroke-miterlimit:10"></polyline><path d="M239.58,163.48c0,.4,2.18,2.45,5.45.81" style="fill:none;stroke:#263238;stroke-miterlimit:10"></path><circle cx="241.9" cy="170.28" r="1.22" style="fill:#263238"></circle><path d="M236.73,157.49c0,.6-.37,1.09-.82,1.09s-.82-.49-.82-1.09.37-1.09.82-1.09S236.73,156.89,236.73,157.49Z" style="fill:#263238"></path><path d="M249.93,157.9a1,1,0,0,1-.82,1.08c-.45,0-.81-.48-.81-1.08s.36-1.09.81-1.09S249.93,157.29,249.93,157.9Z" style="fill:#263238"></path><path d="M232.92,153.27a7.24,7.24,0,0,1,6,.81" style="fill:none;stroke:#263238;stroke-miterlimit:10"></path><path d="M246.66,154.9a8.74,8.74,0,0,1,7.62.14" style="fill:#fff;stroke:#263238;stroke-miterlimit:10"></path></g></svg>