<svg width="96" height="96" viewBox="0 0 96 96" fill="none" xmlns="http://www.w3.org/2000/svg">
<rect width="96" height="96" rx="5" fill="#3095F2"/>
<path d="M55.674 52.2432L48.6427 42.087C48.5708 41.9831 48.4748 41.8981 48.3629 41.8394C48.251 41.7807 48.1265 41.7501 48.0001 41.7501C47.8738 41.7501 47.7493 41.7807 47.6374 41.8394C47.5255 41.8981 47.4294 41.9831 47.3576 42.087L40.3263 52.2432C40.2573 52.3429 40.2124 52.4573 40.1953 52.5773C40.1782 52.6973 40.1893 52.8197 40.2277 52.9347L42.2287 58.9376H41.7501C41.5429 58.9376 41.3442 59.0199 41.1977 59.1664C41.0512 59.3129 40.9689 59.5116 40.9689 59.7188V62.0626C40.9689 62.2698 41.0512 62.4685 41.1977 62.615C41.3442 62.7615 41.5429 62.8438 41.7501 62.8438H42.5314V71.4376C42.5314 71.6448 42.6137 71.8435 42.7602 71.99C42.9067 72.1365 43.1054 72.2188 43.3126 72.2188H52.6876C52.8948 72.2188 53.0936 72.1365 53.2401 71.99C53.3866 71.8435 53.4689 71.6448 53.4689 71.4376V62.8438H54.2501C54.4573 62.8438 54.6561 62.7615 54.8026 62.615C54.9491 62.4685 55.0314 62.2698 55.0314 62.0626V59.7188C55.0314 59.5116 54.9491 59.3129 54.8026 59.1664C54.6561 59.0199 54.4573 58.9376 54.2501 58.9376H53.7716L55.7726 52.9347C55.811 52.8197 55.8221 52.6973 55.805 52.5773C55.7878 52.4573 55.743 52.3429 55.674 52.2432ZM48.0001 51.1251C48.1547 51.1251 48.3057 51.1709 48.4342 51.2567C48.5627 51.3426 48.6628 51.4646 48.7219 51.6074C48.7811 51.7501 48.7965 51.9072 48.7664 52.0587C48.7362 52.2103 48.6618 52.3495 48.5526 52.4588C48.4433 52.568 48.3041 52.6424 48.1526 52.6726C48.001 52.7027 47.8439 52.6872 47.7012 52.6281C47.5584 52.569 47.4364 52.4688 47.3506 52.3404C47.2647 52.2119 47.2189 52.0608 47.2189 51.9063C47.2192 51.6992 47.3016 51.5007 47.448 51.3542C47.5945 51.2078 47.793 51.1254 48.0001 51.1251ZM51.9064 70.6563H44.0939V62.8438H51.9064V70.6563ZM53.4689 61.2813H42.5314V60.5001H53.4689V61.2813ZM52.1242 58.9376H43.8761L41.8331 52.8116L47.2189 45.0323V49.5626C47.2193 49.6064 47.2232 49.6502 47.2306 49.6934C46.7074 49.8753 46.2655 50.2367 45.9833 50.7133C45.7011 51.19 45.5969 51.7513 45.6891 52.2975C45.7813 52.8437 46.064 53.3396 46.4871 53.6972C46.9101 54.0548 47.4462 54.251 48.0001 54.251C48.5541 54.251 49.0901 54.0548 49.5132 53.6972C49.9362 53.3396 50.219 52.8437 50.3112 52.2975C50.4034 51.7513 50.2992 51.19 50.017 50.7133C49.7348 50.2367 49.2929 49.8753 48.7697 49.6934C48.777 49.6502 48.781 49.6064 48.7814 49.5626V45.0323L54.1671 52.8116L52.1242 58.9376Z" fill="white"/>
<path d="M71.4375 32.375H68.3125C68.1053 32.375 67.9066 32.4573 67.7601 32.6038C67.6136 32.7503 67.5312 32.949 67.5312 33.1562V33.9443C67.4989 33.9401 67.4663 33.9378 67.4336 33.9375H50.3438V33.1562C50.3438 32.949 50.2614 32.7503 50.1149 32.6038C49.9684 32.4573 49.7697 32.375 49.5625 32.375H48.7812V28.4688H49.5625C49.7697 28.4688 49.9684 28.3864 50.1149 28.2399C50.2614 28.0934 50.3438 27.8947 50.3438 27.6875V24.5625C50.3438 24.3553 50.2614 24.1566 50.1149 24.0101C49.9684 23.8636 49.7697 23.7812 49.5625 23.7812H46.4375C46.2303 23.7812 46.0316 23.8636 45.8851 24.0101C45.7386 24.1566 45.6562 24.3553 45.6562 24.5625V27.6875C45.6562 27.8947 45.7386 28.0934 45.8851 28.2399C46.0316 28.3864 46.2303 28.4688 46.4375 28.4688H47.2188V32.375H46.4375C46.2303 32.375 46.0316 32.4573 45.8851 32.6038C45.7386 32.7503 45.6562 32.949 45.6562 33.1562V33.9375H28.4688V33.1562C28.4688 32.949 28.3864 32.7503 28.2399 32.6038C28.0934 32.4573 27.8947 32.375 27.6875 32.375H24.5625C24.3553 32.375 24.1566 32.4573 24.0101 32.6038C23.8636 32.7503 23.7812 32.949 23.7812 33.1562V36.2812C23.7812 36.4885 23.8636 36.6872 24.0101 36.8337C24.1566 36.9802 24.3553 37.0625 24.5625 37.0625H27.6875C27.8947 37.0625 28.0934 36.9802 28.2399 36.8337C28.3864 36.6872 28.4688 36.4885 28.4688 36.2812V35.5H41.3848C40.3537 36.1822 39.432 37.0169 38.6514 37.9756C36.6484 40.4043 35.5 43.4883 35.5 46.4375H34.7188C34.5115 46.4375 34.3128 46.5198 34.1663 46.6663C34.0198 46.8128 33.9375 47.0115 33.9375 47.2188V50.3438C33.9375 50.551 34.0198 50.7497 34.1663 50.8962C34.3128 51.0427 34.5115 51.125 34.7188 51.125H37.8438C38.051 51.125 38.2497 51.0427 38.3962 50.8962C38.5427 50.7497 38.625 50.551 38.625 50.3438V47.2188C38.625 47.0115 38.5427 46.8128 38.3962 46.6663C38.2497 46.5198 38.051 46.4375 37.8438 46.4375H37.0625C37.0625 40.6445 41.5195 36.0752 45.6562 35.5508V36.2812C45.6562 36.4885 45.7386 36.6872 45.8851 36.8337C46.0316 36.9802 46.2303 37.0625 46.4375 37.0625H49.5625C49.7697 37.0625 49.9684 36.9802 50.1149 36.8337C50.2614 36.6872 50.3438 36.4885 50.3438 36.2812V35.5479C52.459 35.7988 54.4893 37.0664 56.1279 39.1807C57.7227 41.2363 58.7354 43.8984 58.9102 46.4375H58.1562C57.9491 46.4375 57.7503 46.5198 57.6038 46.6663C57.4573 46.8128 57.375 47.0115 57.375 47.2188V50.3438C57.375 50.551 57.4573 50.7497 57.6038 50.8962C57.7503 51.0427 57.9491 51.125 58.1562 51.125H61.2812C61.4884 51.125 61.6872 51.0427 61.8337 50.8962C61.9802 50.7497 62.0625 50.551 62.0625 50.3438V47.2188C62.0625 47.0115 61.9802 46.8128 61.8337 46.6663C61.6872 46.5198 61.4884 46.4375 61.2812 46.4375H60.4756C60.3047 43.5361 59.1924 40.5811 57.3633 38.2227C56.5589 37.1666 55.5894 36.2473 54.4922 35.5H67.4336C67.4663 35.4997 67.4989 35.4974 67.5312 35.4932V36.2812C67.5312 36.4885 67.6136 36.6872 67.7601 36.8337C67.9066 36.9802 68.1053 37.0625 68.3125 37.0625H71.4375C71.6447 37.0625 71.8434 36.9802 71.9899 36.8337C72.1364 36.6872 72.2188 36.4885 72.2188 36.2812V33.1562C72.2188 32.949 72.1364 32.7503 71.9899 32.6038C71.8434 32.4573 71.6447 32.375 71.4375 32.375ZM26.9062 35.5H25.3438V33.9375H26.9062V35.5ZM37.0625 49.5625H35.5V48H37.0625V49.5625ZM47.2188 25.3438H48.7812V26.9062H47.2188V25.3438ZM48.7812 35.5H47.2188V33.9375H48.7812V35.5ZM58.9375 48H60.5V49.5625H58.9375V48ZM70.6562 35.5H69.0938V33.9375H70.6562V35.5Z" fill="white"/>
</svg>
