<svg width="96" height="96" viewBox="0 0 96 96" fill="none" xmlns="http://www.w3.org/2000/svg">
<rect width="96" height="96" rx="5" fill="#3095F2"/>
<path d="M70.8667 68.4766L66.7495 53.3672V31.5938C66.7476 30.9727 66.5001 30.3777 66.061 29.9385C65.6218 29.4994 65.0268 29.2519 64.4057 29.25H57.5385L54.6323 26.3359C54.4946 26.1998 54.3113 26.1196 54.1179 26.1109C53.9244 26.1023 53.7347 26.1658 53.5854 26.2891L51.3979 28.0703L51.1245 25.2656C51.1025 25.0733 51.011 24.8956 50.8671 24.766C50.7232 24.6365 50.5368 24.5641 50.3432 24.5625H45.6557C45.4621 24.5641 45.2758 24.6365 45.1319 24.766C44.988 24.8956 44.8964 25.0733 44.8745 25.2656L44.601 28.0703L42.4135 26.2891C42.2643 26.1658 42.0745 26.1023 41.8811 26.1109C41.6877 26.1196 41.5043 26.1998 41.3667 26.3359L38.4604 29.25H31.5932C30.9722 29.2519 30.3771 29.4994 29.938 29.9385C29.4989 30.3777 29.2513 30.9727 29.2495 31.5938V53.3672L25.1323 68.4766C25.0356 68.8241 25.0208 69.1893 25.0889 69.5436C25.1571 69.8978 25.3064 70.2314 25.5251 70.5183C25.7439 70.8052 26.0261 71.0374 26.3497 71.1969C26.6732 71.3564 27.0294 71.4388 27.3901 71.4375H68.6089C68.9696 71.4388 69.3257 71.3564 69.6493 71.1969C69.9729 71.0374 70.2551 70.8052 70.4738 70.5183C70.6926 70.2314 70.8419 69.8978 70.91 69.5436C70.9782 69.1893 70.9633 68.8241 70.8667 68.4766ZM41.976 27.9453L44.7339 30.2031C44.8443 30.2918 44.9763 30.3493 45.1164 30.3699C45.2564 30.3905 45.3995 30.3734 45.5307 30.3203C45.6612 30.2651 45.7743 30.1758 45.8582 30.0616C45.9421 29.9475 45.9936 29.8128 46.0073 29.6719L46.3589 26.125H49.6401L49.9917 29.6719C50.0054 29.8128 50.0569 29.9475 50.1408 30.0616C50.2246 30.1758 50.3378 30.2651 50.4682 30.3203C50.5995 30.3734 50.7425 30.3905 50.8826 30.3699C51.0226 30.3493 51.1547 30.2918 51.2651 30.2031L54.0229 27.9453L56.3354 30.2578L54.0776 33.0156C53.989 33.126 53.9314 33.2581 53.9108 33.3982C53.8902 33.5382 53.9073 33.6813 53.9604 33.8125C54.0156 33.943 54.105 34.0561 54.2191 34.14C54.3332 34.2238 54.4679 34.2754 54.6089 34.2891L58.1557 34.6406V37.9219L54.6089 38.2734C54.4679 38.2871 54.3332 38.3387 54.2191 38.4225C54.105 38.5064 54.0156 38.6196 53.9604 38.75C53.9073 38.8812 53.8902 39.0243 53.9108 39.1644C53.9314 39.3044 53.989 39.4365 54.0776 39.5469L56.3354 42.3047L54.0229 44.6172L51.2651 42.3594C51.1547 42.2708 51.0226 42.2132 50.8826 42.1926C50.7425 42.172 50.5995 42.1891 50.4682 42.2422C50.3378 42.2974 50.2246 42.3867 50.1408 42.5009C50.0569 42.615 50.0054 42.7497 49.9917 42.8906L49.6401 46.4375H46.3589L46.0073 42.8906C45.9936 42.7497 45.9421 42.615 45.8582 42.5009C45.7743 42.3867 45.6612 42.2974 45.5307 42.2422C45.3995 42.1891 45.2564 42.172 45.1164 42.1926C44.9763 42.2132 44.8443 42.2708 44.7339 42.3594L41.976 44.6172L39.6635 42.3047L41.9214 39.5469C42.01 39.4365 42.0676 39.3044 42.0882 39.1644C42.1088 39.0243 42.0916 38.8812 42.0385 38.75C41.9834 38.6196 41.894 38.5064 41.7799 38.4225C41.6657 38.3387 41.5311 38.2871 41.3901 38.2734L37.8432 37.9219V34.6406L41.3901 34.2891C41.5311 34.2754 41.6657 34.2238 41.7799 34.14C41.894 34.0561 41.9834 33.943 42.0385 33.8125C42.0916 33.6813 42.1088 33.5382 42.0882 33.3982C42.0676 33.2581 42.01 33.126 41.9214 33.0156L39.6635 30.2578L41.976 27.9453ZM30.812 31.5938C30.812 31.3866 30.8943 31.1878 31.0408 31.0413C31.1873 30.8948 31.386 30.8125 31.5932 30.8125H38.0932L39.7885 32.8828L36.9839 33.1563C36.7915 33.1782 36.6138 33.2697 36.4843 33.4136C36.3547 33.5576 36.2823 33.7439 36.2807 33.9375V38.625C36.2823 38.8186 36.3547 39.0049 36.4843 39.1489C36.6138 39.2928 36.7915 39.3843 36.9839 39.4063L39.7885 39.6797L38.0073 41.8672C37.884 42.0165 37.8205 42.2062 37.8292 42.3997C37.8378 42.5931 37.918 42.7764 38.0542 42.9141L41.3667 46.2266C41.5043 46.3627 41.6877 46.4429 41.8811 46.4516C42.0745 46.4602 42.2643 46.3967 42.4135 46.2734L44.601 44.4922L44.8745 47.2969C44.8964 47.4892 44.988 47.6669 45.1319 47.7965C45.2758 47.926 45.4621 47.9984 45.6557 48H50.3432C50.5368 47.9984 50.7232 47.926 50.8671 47.7965C51.011 47.6669 51.1025 47.4892 51.1245 47.2969L51.3979 44.4922L53.5854 46.2734C53.7347 46.3967 53.9244 46.4602 54.1179 46.4516C54.3113 46.4429 54.4946 46.3627 54.6323 46.2266L57.9448 42.9141C58.0809 42.7764 58.1611 42.5931 58.1698 42.3997C58.1784 42.2062 58.115 42.0165 57.9917 41.8672L56.2104 39.6797L59.0151 39.4063C59.2075 39.3843 59.3852 39.2928 59.5147 39.1489C59.6442 39.0049 59.7166 38.8186 59.7182 38.625V33.9375C59.7166 33.7439 59.6442 33.5576 59.5147 33.4136C59.3852 33.2697 59.2075 33.1782 59.0151 33.1563L56.2104 32.8828L57.9057 30.8125H64.4057C64.6129 30.8125 64.8116 30.8948 64.9582 31.0413C65.1047 31.1878 65.187 31.3866 65.187 31.5938V52.6875H30.812V31.5938ZM69.2339 69.5703C69.1607 69.6664 69.0661 69.7439 68.9575 69.7969C68.849 69.8498 68.7296 69.8765 68.6089 69.875H27.3901C27.2694 69.8765 27.15 69.8498 27.0414 69.7969C26.9329 69.7439 26.8383 69.6664 26.7651 69.5703C26.6921 69.4734 26.6422 69.3611 26.6191 69.2419C26.5961 69.1228 26.6006 69 26.6323 68.8828L30.6245 54.25H65.3745L69.3667 68.8828C69.3983 69 69.4028 69.1228 69.3798 69.2419C69.3568 69.3611 69.3069 69.4734 69.2339 69.5703Z" fill="white"/>
<path d="M55.0078 64.2164C54.9655 64.0475 54.8679 63.8975 54.7306 63.7904C54.5933 63.6832 54.4241 63.625 54.25 63.625H41.75C41.5758 63.625 41.4066 63.6832 41.2693 63.7904C41.132 63.8975 41.0345 64.0475 40.9922 64.2164L40.2109 67.3414C40.1821 67.4566 40.1798 67.5769 40.2044 67.693C40.229 67.8092 40.2798 67.9183 40.3528 68.0119C40.4259 68.1055 40.5193 68.1812 40.6261 68.2333C40.7328 68.2854 40.85 68.3125 40.9687 68.3125H55.0312C55.15 68.3125 55.2672 68.2854 55.3739 68.2333C55.4806 68.1812 55.574 68.1055 55.6471 68.0119C55.7202 67.9183 55.7709 67.8092 55.7955 67.693C55.8201 67.5769 55.8179 67.4566 55.789 67.3414L55.0078 64.2164ZM41.9695 66.75L42.3601 65.1875H53.6398L54.0304 66.75H41.9695Z" fill="white"/>
<path d="M44.0938 49.5625H51.9062V51.125H44.0938V49.5625Z" fill="white"/>
<path d="M32.375 55.8125H35.5V57.375H32.375V55.8125Z" fill="white"/>
<path d="M37.0625 55.8125H40.1875V57.375H37.0625V55.8125Z" fill="white"/>
<path d="M41.75 55.8125H44.875V57.375H41.75V55.8125Z" fill="white"/>
<path d="M51.125 55.8125H54.25V57.375H51.125V55.8125Z" fill="white"/>
<path d="M55.8125 55.8125H58.9375V57.375H55.8125V55.8125Z" fill="white"/>
<path d="M60.5 55.8125H63.625V57.375H60.5V55.8125Z" fill="white"/>
<path d="M46.4375 55.8125H49.5625V57.375H46.4375V55.8125Z" fill="white"/>
<path d="M32.375 58.9375H35.5V60.5H32.375V58.9375Z" fill="white"/>
<path d="M37.0625 58.9375H40.1875V60.5H37.0625V58.9375Z" fill="white"/>
<path d="M41.75 58.9375H44.875V60.5H41.75V58.9375Z" fill="white"/>
<path d="M51.125 58.9375H54.25V60.5H51.125V58.9375Z" fill="white"/>
<path d="M55.8125 58.9375H58.9375V60.5H55.8125V58.9375Z" fill="white"/>
<path d="M60.5 58.9375H63.625V60.5H60.5V58.9375Z" fill="white"/>
<path d="M46.4375 58.9375H49.5625V60.5H46.4375V58.9375Z" fill="white"/>
<path d="M48 40.9687C48.9271 40.9687 49.8334 40.6938 50.6042 40.1788C51.3751 39.6637 51.9759 38.9316 52.3307 38.0751C52.6855 37.2185 52.7783 36.276 52.5974 35.3668C52.4166 34.4575 51.9701 33.6222 51.3146 32.9667C50.659 32.3111 49.8238 31.8647 48.9145 31.6838C48.0052 31.5029 47.0627 31.5958 46.2062 31.9506C45.3496 32.3053 44.6176 32.9062 44.1025 33.677C43.5874 34.4479 43.3125 35.3541 43.3125 36.2812C43.3137 37.5241 43.808 38.7156 44.6868 39.5944C45.5656 40.4732 46.7572 40.9675 48 40.9687ZM48 33.1562C48.6181 33.1562 49.2223 33.3395 49.7362 33.6829C50.2501 34.0263 50.6506 34.5143 50.8871 35.0854C51.1236 35.6564 51.1855 36.2847 51.0649 36.8909C50.9444 37.4971 50.6467 38.0539 50.2097 38.491C49.7727 38.928 49.2158 39.2256 48.6097 39.3462C48.0035 39.4668 47.3751 39.4049 46.8041 39.1684C46.2331 38.9318 45.745 38.5313 45.4017 38.0174C45.0583 37.5035 44.875 36.8993 44.875 36.2812C44.875 35.4524 45.2042 34.6576 45.7903 34.0715C46.3763 33.4855 47.1712 33.1562 48 33.1562Z" fill="white"/>
</svg>
